<svg width="215" height="215" viewBox="0 0 215 215" fill="none" xmlns="http://www.w3.org/2000/svg">
  <path
    d="M11.3137 118.373C5.06533 112.125 5.06532 101.994 11.3137 95.7459L95.7457 11.3139C101.994 5.0655 112.125 5.0655 118.373 11.3139L202.774 95.7145C209.022 101.963 209.022 112.093 202.774 118.342L118.342 202.774C112.093 209.022 101.963 209.022 95.7143 202.774L11.3137 118.373Z"
    fill="white" />
  <path
    d="M74.5495 67.0738C71.2828 63.8071 71.2828 58.4673 74.5495 55.1378L101.123 28.5643C104.39 25.2976 109.729 25.2976 112.996 28.5643L139.57 55.1378C142.836 58.4045 142.836 63.7443 139.57 67.011L112.996 93.5844C109.729 96.8511 104.39 96.8511 101.06 93.5844L74.5495 67.0738Z"
    fill="#F2CC37" />
  <path
    d="M64.9376 72.4765L57.2734 72.4765L26.4909 103.196L26.4909 110.923L57.2734 141.643L64.9376 141.643L95.72 110.923V103.196L64.9376 72.4765Z"
    fill="#12487C" />
  <path
    d="M110.86 118.399L103.196 118.399L72.4133 149.181L72.4133 156.845L103.196 187.628L110.86 187.628L141.642 156.845L141.642 149.181L110.86 118.399Z"
    fill="#12487C" />
  <path
    d="M156.783 72.4764L149.118 72.4764L118.399 103.196L118.336 110.923L149.118 141.705L156.846 141.643L187.565 110.923L187.565 103.196L156.783 72.4764Z"
    fill="#12487C" />
</svg>