<svg width="693" height="624" viewBox="0 0 693 624" fill="none" xmlns="http://www.w3.org/2000/svg">
<path opacity="0.3" d="M147.387 279.791C150.633 274.866 150.929 268.934 152.5 263.451C156.824 249.261 159.547 234.641 164.745 220.793C178.264 185.027 199.43 155.183 234.256 137.279C264.568 121.812 295.702 120.952 326.624 134.959C338.304 140.247 349.249 147.485 358.424 156.932C359.338 157.929 360.252 158.926 361.594 158.321C362.936 157.716 362.983 156.333 363.304 155.131C367.144 135.12 372.859 115.721 379.301 96.4111C385.316 78.7035 393.9 62.2238 405.715 48.1158C418.197 33.1139 433.275 20.85 451.388 12.0866C465.677 5.19311 480.544 1.35429 496.045 0.369781C511.218 -0.595331 525.87 2.80829 539.592 9.29028C550.397 14.2363 560.628 20.5309 569.757 28.1396C577.645 34.7702 585.246 42.0751 591.344 50.5864C635.351 112.453 668.267 180.892 707.834 245.322C716.947 260.227 725.499 275.626 736.768 289.285C744.635 298.809 762.203 303.749 774.267 299.156C781.778 296.345 789.289 293.533 796.173 289.05C800.72 286.086 804.304 286.728 806.912 291.832C808.4 294.701 809.834 297.771 811.829 300.347C815.599 305.119 813.415 308.074 809.468 311.2C801.322 317.598 792.094 322.417 785.029 330.394C775.379 341.219 773.512 352.634 778.473 366.208C783.581 380.036 790.412 393.039 797.676 405.621C828.663 459.584 859.522 513.62 891.323 566.943C901.923 584.718 911.782 603.259 926.062 618.909C935.57 629.519 950.897 629.99 963.217 618.81C968.065 614.316 972.786 609.896 977.561 605.275C979.17 603.668 981.18 602.169 983.349 603.289C988.709 606.126 993.654 609.711 997.911 613.862C1000.21 616.091 999.718 618.75 997.768 621.231C983.162 640.171 968.135 658.676 953.949 678.051C943.336 692.482 931.682 705.989 920.996 720.293C914.678 728.686 905.224 731.941 897.071 737.156C894.734 738.675 893.287 736.46 891.859 734.573C883.399 722.85 876.769 709.901 869.504 697.318C864.954 689.438 859.263 682.217 855.728 673.751C855.268 672.661 854.501 671.918 853.065 672.069C848.321 685.823 843.703 699.505 840.032 713.656C833.728 738.479 823.105 761.389 806.683 780.699C788.417 802.091 765.682 816.912 737.429 823.055C711.373 828.609 687.243 823.73 664.384 811.677C656.856 807.72 649.448 802.507 643.47 795.96C642.282 794.782 641.274 793.33 639.332 793.773C637.262 794.29 637.508 796.182 637.08 797.785C627.995 833.025 619.857 868.736 597.236 898.403C584.833 914.715 569.395 927.526 551.141 937.218C534.409 946.031 517.037 950.807 498.039 950.421C474.242 949.926 453.525 940.704 434.946 926.689C417.735 913.578 404.324 897.088 392.829 878.643C352.862 814.105 316.627 747.243 278.055 681.9C273.085 673.584 266.686 666.603 260.541 659.474C253.061 650.913 242.901 651.187 232.513 653.117C221.999 655.121 211.998 658.014 202.297 662.598C198.852 664.248 195.901 663.24 193.559 660.356C193.413 660.101 193.193 659.72 192.919 659.539C182.498 644.712 182.832 642.654 198.456 633.973C207.156 629.119 214.615 623.288 219.678 614.772C225.59 605.089 224.899 594.811 221.666 584.816C216.712 569.204 207.859 555.336 199.714 541.228C175.371 499.359 151.41 457.27 126.94 415.474C112.138 390.127 98.2227 364.268 80.8291 340.587C76.5992 334.725 70.9937 329.997 65.1208 326.27C56.0913 320.299 47.645 325.006 39.746 330.075C32.7351 334.631 28.4467 341.852 21.6559 346.789C19.9532 347.942 18.6311 348.874 16.7356 347.935C11.3764 345.098 6.86539 341.093 2.60806 336.942C-0.80846 333.661 1.33575 330.051 3.72 327.149C14.8601 312.753 26.2739 298.537 37.541 284.067C51.6599 265.748 65.7054 247.301 79.751 228.855C85.5816 221.082 94.2144 217.284 102.72 213.56C106.493 211.89 108.367 215.723 110.055 218.646C120.842 237.329 131.702 256.14 142.489 274.823C143.663 276.857 144.203 279.257 147.387 279.791ZM375.269 339.04C360.785 315.712 344.343 282.839 324.095 252.163C315.996 239.892 307.536 228.169 295.691 219.078C273.735 202.437 252.808 201.64 229.34 211.97C214.178 218.521 203.099 230.679 194.409 244.339C184.403 260.114 175.091 276.506 169.697 294.702C166.929 304.265 163.034 313.631 170.68 322.774C172.529 325.096 173.382 328.332 174.923 331.001C200.973 376.12 227.023 421.24 253.073 466.36C264.006 485.298 274.486 504.328 286.688 522.533C292.826 531.699 298.169 541.833 307.746 548.166C316.775 554.138 326.2 555.814 336.796 551.899C346.303 548.444 355.003 543.591 363.83 538.664C367.455 536.74 371.194 535.598 373.889 539.974C376.291 543.84 378.639 547.908 380.66 551.994C382.754 556.208 381.371 559.379 377.092 561.341C366.249 566.585 357.694 574.913 348.846 582.733C344.793 586.259 341.694 591.438 339.922 596.866C336.634 607.577 339.667 617.519 344.57 626.89C351.181 639.511 357.864 652.26 365.109 664.515C399.772 722.795 430.829 783.326 468.79 839.702C474.928 848.868 482.408 857.428 491.564 863.327C510.424 875.485 530.037 875.177 550.214 864.714C575.159 851.668 589.552 830.309 601.077 806.031C606.381 795.004 608.789 782.768 613.493 771.579C616.132 765.31 615.433 760.291 611.971 755.172C600.596 738.693 591.631 720.821 581.397 703.682C549.303 649.851 519.999 594.408 486.182 541.402C479.658 531.273 470.501 525.374 458.872 526.327C446.262 527.337 433.678 529.857 422.354 536.904C413.747 542.212 409.576 540.553 404.532 532.111C403.431 530.204 402.331 528.298 401.23 526.391C398.388 521.762 398.57 518.268 403.791 515.592C414.868 509.875 425.357 503.141 434.072 494.212C441.178 486.889 444.239 477.835 443.475 467.43C442.512 453.751 434.62 442.717 428.342 431.259C412.833 402.931 396.109 375.136 375.269 339.04ZM597.245 222.236C575.384 185.543 556.187 147.313 532.042 111.938C525.117 101.702 516.689 92.6711 506.058 86.2689C496.448 80.4633 485.855 77.9364 473.665 79.3819C462.129 80.7886 451.988 84.6102 442.42 90.3038C426.709 99.7134 415.569 114.11 406.671 129.754C396.945 146.893 390.262 165.494 385.182 184.527C384.306 187.405 384.846 189.805 386.313 192.347C429.942 265.277 469.078 340.972 515.751 412.145C521.175 420.367 528.622 426.235 538.842 426.944C552.026 427.806 563.816 423.032 575.18 416.64C590.023 408.071 591.171 408.594 598.561 424.324C601.116 429.628 599.566 432.218 595.22 435.236C587.214 440.705 579.354 446.429 571.769 452.334C552.524 467.342 554.154 483.348 559.016 495.284C561.963 502.733 565.946 509.924 569.908 516.788C602.362 573.292 634.869 629.597 667.577 685.955C673.301 695.869 679.478 705.69 686.598 714.798C695.692 726.155 705.581 736.545 719.443 742.098C749.338 754.325 779.196 738.951 797.749 716.885C805.282 707.96 810.573 697.788 816.138 687.797C824.007 673.594 830.254 658.633 833.077 642.429C833.713 638.842 833.187 635.587 831.352 632.41C789.845 561.982 751.002 490.017 707.392 420.634C701.581 411.449 694.896 401.921 682.601 400.546C672.688 399.491 662.935 401.055 653.701 404.691C647.352 407.17 641.37 410.285 635.094 412.892C630.36 414.947 626.389 413.342 623.821 408.894C621.839 405.462 620.292 401.61 618.311 398.179C616.33 394.747 617.172 392.397 620.397 390.365C626.613 386.777 632.902 383.315 638.772 379.418C646.978 374.002 653.976 367.081 658.038 358.296C663.557 346.467 661.185 334.449 655.075 323.572C636.41 289.779 616.764 256.044 597.245 222.236Z" fill="url(#paint0_linear_17299_826)"/>
<defs>
<linearGradient id="paint0_linear_17299_826" x1="322" y1="916" x2="172.323" y2="136.193" gradientUnits="userSpaceOnUse">
<stop stop-color="#094183"/>
<stop offset="1" stop-color="#094183" stop-opacity="0"/>
</linearGradient>
</defs>
</svg>
