<svg width="314" height="480" viewBox="0 0 314 480" fill="none" xmlns="http://www.w3.org/2000/svg">
  <g clip-path="url(#clip0_7534_4630)">
    <g opacity="0.05">
      <path
        d="M-22.1709 121.727C-31.8792 112.019 -31.8792 96.1492 -22.1709 86.2542L56.8021 7.2812C66.5104 -2.42707 82.3797 -2.42707 92.0879 7.2812L171.061 86.2542C180.769 95.9625 180.769 111.832 171.061 121.54L92.0879 200.513C82.3797 210.221 66.5104 210.221 56.6154 200.513L-22.1709 121.727Z"
        fill="#F2CC37" />
      <path
        d="M-50.7411 137.785H-73.5182L-165 229.08V252.044L-73.5182 343.339H-50.7411L40.7406 252.044V229.08L-50.7411 137.785Z"
        fill="white" />
      <path
        d="M85.7354 274.26H62.9583L-28.5234 365.741V388.518L62.9583 480H85.7354L177.217 388.518V365.741L85.7354 274.26Z"
        fill="white" />
      <path
        d="M222.211 137.785H199.434L108.139 229.08L107.952 252.044L199.434 343.526L222.398 343.339L313.693 252.044V229.08L222.211 137.785Z"
        fill="white" />
    </g>
  </g>
  <defs>
    <clipPath id="clip0_7534_4630">
      <rect width="314" height="480" fill="white" />
    </clipPath>
  </defs>
</svg>