<svg width="1440" height="454" viewBox="0 0 1440 454" fill="none" xmlns="http://www.w3.org/2000/svg">
<line x1="206.253" y1="-156" x2="206.253" y2="992.911" stroke="white"/>
<line x1="443.142" y1="-156" x2="443.142" y2="992.911" stroke="white"/>
<line x1="680.031" y1="-156" x2="680.03" y2="992.911" stroke="white"/>
<line x1="916.919" y1="-156" x2="916.919" y2="992.911" stroke="white"/>
<line x1="1153.81" y1="-156" x2="1153.81" y2="992.911" stroke="white"/>
<line x1="1390.7" y1="-156" x2="1390.7" y2="992.911" stroke="white"/>
<line x1="-308" y1="107.039" x2="1824" y2="107.039" stroke="white"/>
<line x1="-308" y1="343.928" x2="1824" y2="343.928" stroke="white"/>
<line x1="-308" y1="225.483" x2="1824" y2="225.483" stroke="white"/>
<line x1="87.8083" y1="-156" x2="87.8083" y2="992.911" stroke="white"/>
<line x1="324.697" y1="-156" x2="324.697" y2="992.911" stroke="white"/>
<line x1="561.586" y1="-156" x2="561.586" y2="992.911" stroke="white"/>
<line x1="798.475" y1="-156" x2="798.475" y2="992.911" stroke="white"/>
<line x1="1035.36" y1="-156" x2="1035.36" y2="992.911" stroke="white"/>
<line x1="1272.25" y1="-156" x2="1272.25" y2="992.911" stroke="white"/>
</svg>
