<svg width="20" height="20" viewBox="0 0 20 20" fill="none" xmlns="http://www.w3.org/2000/svg">
  <g clip-path="url(#clip0_7547_4579)">
    <path
      d="M1.42121 19.7557L6.39538 14.7815C8.05322 16.137 10.1686 16.8035 12.3041 16.643C14.4395 16.4826 16.4316 15.5075 17.8683 13.9195C19.305 12.3315 20.0763 10.252 20.0228 8.11119C19.9693 5.9704 19.0949 3.93207 17.5807 2.41783C16.0665 0.903588 14.0281 0.0292815 11.8873 -0.024245C9.74656 -0.0777715 7.66708 0.693577 6.07906 2.13025C4.49104 3.56693 3.51596 5.55901 3.35551 7.69445C3.19507 9.8299 3.86153 11.9453 5.21705 13.6032L0.242879 18.5773C0.0910809 18.7345 0.00708699 18.945 0.00898481 19.1635C0.0108826 19.382 0.0985253 19.591 0.253032 19.7455C0.407539 19.9 0.61655 19.9877 0.835046 19.9896C1.05354 19.9914 1.26405 19.9075 1.42121 19.7557ZM4.99871 8.33315C4.99871 7.01461 5.38971 5.72568 6.12225 4.62935C6.85479 3.53302 7.89599 2.67854 9.11416 2.17395C10.3323 1.66937 11.6728 1.53735 12.966 1.79458C14.2592 2.05182 15.4471 2.68676 16.3794 3.61911C17.3118 4.55146 17.9467 5.73934 18.204 7.03255C18.4612 8.32576 18.3292 9.6662 17.8246 10.8844C17.32 12.1025 16.4655 13.1437 15.3692 13.8763C14.2729 14.6088 12.9839 14.9998 11.6654 14.9998C9.89788 14.9978 8.20334 14.2948 6.95353 13.045C5.70372 11.7952 5.0007 10.1007 4.99871 8.33315Z"
      fill="#F2CC37" />
  </g>
  <defs>
    <clipPath id="clip0_7547_4579">
      <rect width="20" height="20" fill="white" transform="matrix(0 1 -1 0 20 0)" />
    </clipPath>
  </defs>
</svg>