<svg width="20" height="20" viewBox="0 0 20 20" fill="none" xmlns="http://www.w3.org/2000/svg">
<g clip-path="url(#clip0_7534_5058)">
<path d="M4.37451 17.5C4.20875 17.5 4.04978 17.4342 3.93257 17.317C3.81536 17.1998 3.74951 17.0408 3.74951 16.875V3.12505C3.7495 3.01643 3.7778 2.90969 3.83161 2.81535C3.88543 2.721 3.9629 2.64231 4.05639 2.58702C4.14988 2.53174 4.25616 2.50177 4.36476 2.50008C4.47336 2.49838 4.58053 2.52502 4.6757 2.57736L17.1757 9.45236C17.2738 9.50629 17.3556 9.58556 17.4125 9.6819C17.4695 9.77823 17.4995 9.8881 17.4995 10C17.4995 10.1119 17.4695 10.2218 17.4125 10.3181C17.3556 10.4145 17.2738 10.4937 17.1757 10.5477L4.6757 17.4227C4.58342 17.4734 4.47982 17.5 4.37451 17.5ZM4.99951 4.18186V15.818L15.5775 10L4.99951 4.18186Z" fill="#F2CC37"/>
<path d="M4.99951 4.18186V15.818L15.5775 10L4.99951 4.18186Z" fill="#F2CC37"/>
</g>
<defs>
<clipPath id="clip0_7534_5058">
<rect width="20" height="20" fill="white"/>
</clipPath>
</defs>
</svg>
