<svg width="50" height="37" viewBox="0 0 50 37" fill="none" xmlns="http://www.w3.org/2000/svg">
  <g clip-path="url(#clip0_148_307)">
    <path
      d="M36.041 14.5163L30.0425 24.3354C29.7859 24.7547 29.1789 24.7547 28.9223 24.3354L27.7552 22.4235C27.5267 22.048 27.001 22.0011 26.7069 22.3297L19.5037 30.3934C18.9718 30.991 18.0393 30.2932 18.4554 29.6142L26.4503 16.6003C26.7069 16.1841 27.314 16.1841 27.5674 16.6003L28.4217 18.0021C28.6782 18.4214 29.2853 18.4214 29.5419 18.0021L31.2629 15.1765C31.3912 14.9669 31.3912 14.704 31.2629 14.4944L22.6203 0.313255C22.3637 -0.106046 21.7567 -0.106046 21.5001 0.313255L0.0969778 35.4062C-0.168996 35.8443 0.143914 36.4044 0.657088 36.4044H49.3429C49.856 36.4044 50.1689 35.8443 49.903 35.4062L37.1613 14.5163C36.9047 14.097 36.2976 14.097 36.041 14.5163Z"
      fill="#ffffff" />
  </g>
  <defs>
    <clipPath id="clip0_148_307">
      <rect width="50" height="36.4009" fill="white" />
    </clipPath>
  </defs>
</svg>
  