<svg width="562" height="596" viewBox="0 0 562 596" fill="none" xmlns="http://www.w3.org/2000/svg">
  <g opacity="0.03">
    <path
      d="M419.34 11.7099C427.885 11.7099 436.113 14.8747 442.127 21.2043L580.429 159.507C586.442 165.52 589.924 173.432 589.924 182.294C589.924 190.839 586.759 199.067 580.746 205.08L442.443 343.383C436.43 349.396 428.201 352.878 419.656 352.878C411.111 352.878 402.883 349.713 396.87 343.699L258.567 205.397C246.224 193.054 246.224 172.483 258.567 160.14L396.87 21.8373C402.566 15.1912 410.795 11.7099 419.34 11.7099ZM419.34 0C408.263 0 396.87 4.11427 388.325 12.6593L250.022 150.962C232.932 168.052 232.932 195.902 250.022 212.992L388.325 351.295C396.87 359.84 407.947 363.954 419.34 363.954C430.733 363.954 441.81 359.84 450.355 351.295L588.658 212.992C605.748 195.902 605.748 168.052 588.658 150.962L450.355 12.6593C441.81 4.43075 430.733 0 419.34 0Z"
      fill="white" />
    <path
      d="M200.017 241.161H160.14L0 401.301V441.494L160.14 601.634H200.017L360.473 441.494V401.301L200.017 241.161Z"
      fill="white" />
    <path
      d="M439.596 480.419H399.403L239.263 640.559V680.752L399.403 840.892H439.596L599.736 680.752V640.559L439.596 480.419Z"
      fill="white" />
    <path
      d="M678.542 241.161H638.665L478.525 401.301V441.494L638.665 601.634H678.542L838.998 441.494V401.301L678.542 241.161Z"
      fill="white" />
    <path
      d="M200.017 241.161H160.14L0 401.301V441.494L160.14 601.634H200.017L360.473 441.494V401.301L200.017 241.161Z"
      fill="white" />
    <path
      d="M439.596 480.424H399.403L239.263 640.564V680.757L399.403 840.897H439.596L599.736 680.757V640.564L439.596 480.424Z"
      fill="white" />
    <path
      d="M678.542 241.161H638.665L478.525 401.301V441.494L638.665 601.634H678.542L838.998 441.494V401.301L678.542 241.161Z"
      fill="white" />
  </g>
</svg>
  