<svg width="21" height="20" viewBox="0 0 21 20" fill="none" xmlns="http://www.w3.org/2000/svg">
  <path
    d="M9.3991 10.284C9.75788 10.589 10.2436 10.7603 10.75 10.7603C11.2564 10.7603 11.7421 10.589 12.1009 10.284L18.25 5.03505C18.1084 4.73292 17.8642 4.47387 17.5487 4.29124C17.2331 4.1086 16.8608 4.01074 16.4796 4.01025H5.02044C4.6392 4.01074 4.26686 4.1086 3.95135 4.29124C3.63583 4.47387 3.39156 4.73292 3.25 5.03505L9.3991 10.284Z"
    fill="#D1FF00" />
  <path
    d="M12.96 11.2462C12.3734 11.7582 11.5786 12.0457 10.75 12.0457C9.92141 12.0457 9.12664 11.7582 8.54 11.2462L3.25 6.61963V14.3149C3.25 15.3505 4.08947 16.1899 5.125 16.1899H16.375C17.4105 16.1899 18.25 15.3505 18.25 14.3149V6.61963L12.96 11.2462Z"
    fill="#D1FF00" />
</svg>
  