<svg width="28" height="28" viewBox="0 0 28 28" fill="none" xmlns="http://www.w3.org/2000/svg">
<path d="M3.50041 15.0504C3.50041 15.0504 3.61707 15.0504 3.50041 15.0504C3.50041 15.0504 3.61707 15.0504 3.50041 15.0504ZM14.0004 2.33374C7.58374 2.33374 2.33374 7.58374 2.33374 14.0004C2.33374 19.8337 6.65041 24.7337 12.3671 25.5504V16.8004H9.80041V14.0004H12.4837V12.1337C12.4837 9.10041 13.8837 7.81707 16.4504 7.81707C17.6171 7.81707 18.2004 7.93374 18.5504 7.93374V10.2671H16.8004C15.7504 10.2671 15.4004 11.3171 15.4004 12.4837V14.0004H18.5504L18.0837 16.8004H15.4004V25.5504C21.1171 24.8504 25.6671 19.9504 25.6671 14.0004C25.6671 7.58374 20.4171 2.33374 14.0004 2.33374Z" fill="#E4E21E"/>
</svg>
