<svg width="18" height="18" viewBox="0 0 18 18" fill="none" xmlns="http://www.w3.org/2000/svg">
  <path
    d="M17.1825 5.6072C17.143 4.73098 17.0014 4.13147 16.8006 3.60772C16.5899 3.0675 16.3101 2.60633 15.8525 2.15176C15.3949 1.69718 14.9373 1.4106 14.3974 1.20307C13.8739 0.998845 13.2748 0.860495 12.3991 0.820967C11.5201 0.781438 11.2403 0.771556 9.00823 0.771556C6.77291 0.771556 6.49309 0.781438 5.61739 0.820967C4.7417 0.860495 4.14254 1.00214 3.6191 1.20307C3.07591 1.41389 2.61502 1.69389 2.16071 2.15176C1.70641 2.60963 1.42 3.0675 1.2126 3.60772C1.01178 4.13147 0.870219 4.73098 0.830714 5.6072C0.791209 6.4867 0.781333 6.7667 0.781333 9.00005C0.781333 11.2367 0.791209 11.5167 0.830714 12.3929C0.870219 13.2691 1.01178 13.8686 1.2126 14.3924C1.42329 14.9326 1.70311 15.3938 2.16071 15.8483C2.61502 16.3062 3.07591 16.5895 3.61581 16.797C4.13925 17.0013 4.73841 17.1396 5.6141 17.1791C6.49309 17.2187 6.77291 17.2285 9.00494 17.2285C11.2403 17.2285 11.5201 17.2187 12.3958 17.1791C13.2715 17.1396 13.8706 16.998 14.3941 16.797C14.934 16.5862 15.3949 16.3062 15.8492 15.8483C16.3035 15.3905 16.5899 14.9326 16.7973 14.3924C17.0014 13.8686 17.1397 13.2691 17.1792 12.3929C17.2187 11.5134 17.2285 11.2334 17.2285 9.00005C17.2285 6.7667 17.222 6.48341 17.1825 5.6072ZM15.7043 12.327C15.6681 13.1308 15.5331 13.5689 15.4212 13.8555C15.2731 14.2376 15.092 14.5143 14.8023 14.8041C14.5126 15.094 14.2393 15.2686 13.8542 15.4234C13.5645 15.5354 13.1266 15.6705 12.3266 15.7067C11.4608 15.7462 11.2008 15.7561 9.00165 15.7561C6.80254 15.7561 6.54247 15.7462 5.67665 15.7067C4.87338 15.6705 4.43554 15.5354 4.14913 15.4234C3.76725 15.2752 3.49071 15.094 3.20101 14.8041C2.91131 14.5143 2.73683 14.2409 2.5821 13.8555C2.47017 13.5656 2.33519 13.1275 2.29898 12.327C2.25948 11.4607 2.2496 11.2005 2.2496 9.00005C2.2496 6.79964 2.25948 6.53941 2.29898 5.67308C2.33519 4.86933 2.47017 4.43123 2.5821 4.14465C2.73024 3.76254 2.91131 3.48584 3.20101 3.19597C3.49071 2.90609 3.76395 2.73151 4.14913 2.57669C4.43883 2.46469 4.87668 2.32963 5.67665 2.2934C6.54247 2.25387 6.80254 2.24399 9.00165 2.24399C11.2008 2.24399 11.4608 2.25387 12.3266 2.2934C13.1299 2.32963 13.5678 2.46469 13.8542 2.57669C14.236 2.72492 14.5126 2.90609 14.8023 3.19597C15.092 3.48584 15.2665 3.75924 15.4212 4.14465C15.5331 4.43452 15.6681 4.87263 15.7043 5.67308C15.7438 6.53941 15.7537 6.79964 15.7537 9.00005C15.7537 11.2005 15.7405 11.4607 15.7043 12.327Z"
    fill="#051A2E" />
  <path
    d="M9.00183 4.77063C6.66445 4.77063 4.7748 6.6647 4.7748 9.00016C4.7748 11.3389 6.66775 13.2297 9.00183 13.2297C11.3359 13.2297 13.2289 11.3323 13.2289 9.00016C13.2289 6.6614 11.3392 4.77063 9.00183 4.77063ZM9.00183 11.7441C7.48747 11.7441 6.25953 10.5154 6.25953 9.00016C6.25953 7.48491 7.48747 6.25624 9.00183 6.25624C10.5162 6.25624 11.7441 7.48491 11.7441 9.00016C11.7441 10.5154 10.5162 11.7441 9.00183 11.7441Z"
    fill="#051A2E" />
  <path
    d="M13.3934 5.59393C13.9388 5.59393 14.381 5.15149 14.381 4.60572C14.381 4.05995 13.9388 3.61751 13.3934 3.61751C12.8479 3.61751 12.4058 4.05995 12.4058 4.60572C12.4058 5.15149 12.8479 5.59393 13.3934 5.59393Z"
    fill="#051A2E" />
  <path
    d="M0.771484 8.99998C0.771484 11.2366 0.781361 11.5166 0.820866 12.3928C0.86037 13.269 1.00193 13.8686 1.20275 14.3923C1.41344 14.9325 1.69327 15.3937 2.15086 15.8483C2.60517 16.3029 3.06606 16.5894 3.60596 16.797C4.1294 17.0012 4.72856 17.1395 5.60425 17.1791C6.48324 17.2186 6.76306 17.2285 8.99509 17.2285C11.2304 17.2285 11.5102 17.2186 12.3859 17.1791C13.2616 17.1395 13.8608 16.9979 14.3842 16.797C14.9241 16.5861 15.385 16.3061 15.8393 15.8483C16.2936 15.3937 16.58 14.9325 16.7874 14.3923C16.9915 13.8686 17.1298 13.269 17.1693 12.3928C17.2088 11.5133 17.2187 11.2333 17.2187 8.99998C17.2187 6.76333 17.2088 6.48334 17.1693 5.60713C17.1298 4.73091 16.9883 4.1314 16.7874 3.60765C16.5767 3.06743 16.2969 2.60626 15.8393 2.15168C15.3883 1.69381 14.9274 1.41053 14.3875 1.203C13.8641 0.998773 13.2649 0.860423 12.3892 0.820895C11.5102 0.781366 11.2304 0.771484 8.99838 0.771484C6.76306 0.771484 6.48324 0.781366 5.60754 0.820895C4.73185 0.860423 4.13269 1.00207 3.60925 1.203C3.06935 1.41382 2.60846 1.69381 2.15416 2.15168C1.69985 2.60955 1.41344 3.06743 1.20604 3.60765C1.00193 4.1314 0.86037 4.73091 0.820866 5.60713C0.781361 6.48334 0.771484 6.76333 0.771484 8.99998ZM2.25621 8.99998C2.25621 6.80286 2.26609 6.53934 2.30559 5.67301C2.3418 4.86926 2.47678 4.43116 2.58871 4.14457C2.73685 3.76247 2.91792 3.48577 3.20762 3.19589C3.49732 2.90602 3.77057 2.73143 4.15574 2.57661C4.44544 2.46462 4.88329 2.32956 5.68326 2.29333C6.54908 2.2538 6.80915 2.24392 9.00826 2.24392C11.2074 2.24392 11.4674 2.2538 12.3333 2.29333C13.1365 2.32956 13.5744 2.46462 13.8608 2.57661C14.2427 2.72485 14.5192 2.90602 14.8089 3.19589C15.0986 3.48577 15.2731 3.75917 15.4278 4.14457C15.5397 4.43445 15.6747 4.87256 15.7109 5.67301C15.7504 6.53934 15.7603 6.79957 15.7603 8.99998C15.7603 11.2004 15.7504 11.4606 15.7109 12.327C15.6747 13.1307 15.5397 13.5688 15.4278 13.8554C15.2797 14.2375 15.0986 14.5142 14.8089 14.8041C14.5192 15.0939 14.246 15.2685 13.8608 15.4233C13.5711 15.5353 13.1332 15.6704 12.3333 15.7066C11.4674 15.7462 11.2074 15.756 9.00826 15.756C6.80915 15.756 6.54908 15.7462 5.68326 15.7066C4.88 15.6704 4.44215 15.5353 4.15574 15.4233C3.77386 15.2751 3.49732 15.0939 3.20762 14.8041C2.91792 14.5142 2.74344 14.2408 2.58871 13.8554C2.47678 13.5655 2.3418 13.1274 2.30559 12.327C2.26279 11.4606 2.25621 11.1971 2.25621 8.99998Z"
    fill="#051A2E" />
</svg>