<svg width="22" height="22" viewBox="0 0 22 22" fill="none" xmlns="http://www.w3.org/2000/svg">
<path d="M6.33364 0.5C3.11247 0.5 0.500305 3.11217 0.500305 6.33333V15.6667C0.500305 18.8878 3.11247 21.5 6.33364 21.5H15.667C18.8881 21.5 21.5003 18.8878 21.5003 15.6667V6.33333C21.5003 3.11217 18.8881 0.5 15.667 0.5H6.33364ZM18.0003 2.83333C18.6443 2.83333 19.167 3.356 19.167 4C19.167 4.644 18.6443 5.16667 18.0003 5.16667C17.3563 5.16667 16.8336 4.644 16.8336 4C16.8336 3.356 17.3563 2.83333 18.0003 2.83333ZM11.0003 5.16667C14.2215 5.16667 16.8336 7.77883 16.8336 11C16.8336 14.2212 14.2215 16.8333 11.0003 16.8333C7.77914 16.8333 5.16697 14.2212 5.16697 11C5.16697 7.77883 7.77914 5.16667 11.0003 5.16667ZM11.0003 7.5C10.072 7.5 9.18181 7.86875 8.52543 8.52513C7.86905 9.1815 7.50031 10.0717 7.50031 11C7.50031 11.9283 7.86905 12.8185 8.52543 13.4749C9.18181 14.1313 10.072 14.5 11.0003 14.5C11.9286 14.5 12.8188 14.1313 13.4752 13.4749C14.1316 12.8185 14.5003 11.9283 14.5003 11C14.5003 10.0717 14.1316 9.1815 13.4752 8.52513C12.8188 7.86875 11.9286 7.5 11.0003 7.5Z" fill="#E4E21E"/>
</svg>
