<svg width="16" height="12" viewBox="0 0 16 12" fill="none" xmlns="http://www.w3.org/2000/svg">
  <path fill-rule="evenodd" clip-rule="evenodd"
    d="M14.2603 0.741107C14.9457 0.925621 15.486 1.46598 15.6705 2.15132C16.0132 3.40338 16 6.01294 16 6.01294C16 6.01294 16 8.60933 15.6705 9.86139C15.486 10.5467 14.9457 11.0871 14.2603 11.2716C13.0083 11.6011 8.00001 11.6011 8.00001 11.6011C8.00001 11.6011 3.00495 11.6011 1.73971 11.2584C1.05437 11.0739 0.514004 10.5335 0.32949 9.84821C0 8.60932 0 5.99976 0 5.99976C0 5.99976 0 3.40338 0.32949 2.15132C0.514004 1.46598 1.06755 0.912442 1.73971 0.727927C2.99177 0.398438 8.00001 0.398438 8.00001 0.398438C8.00001 0.398438 13.0083 0.398438 14.2603 0.741107ZM10.5699 5.73294L6.40511 8.13163V3.33426L10.5699 5.73294Z"
    fill="#051A2E" />
</svg>