<svg width="21" height="20" viewBox="0 0 21 20" fill="none" xmlns="http://www.w3.org/2000/svg">
  <path
    d="M10.895 2C9.17169 2.00195 7.51949 2.70822 6.30092 3.96385C5.08234 5.21948 4.39691 6.92192 4.39502 8.69764C4.39502 12.2353 9.85502 17.0918 10.4751 17.6343L10.895 18L11.3149 17.6343C11.935 17.0918 17.395 12.2353 17.395 8.69764C17.3931 6.92192 16.7077 5.21948 15.4891 3.96385C14.2705 2.70822 12.6183 2.00195 10.895 2ZM10.895 12.0465C10.2522 12.0465 9.62388 11.8501 9.08942 11.4821C8.55496 11.1141 8.1384 10.5911 7.89241 9.97918C7.64643 9.36726 7.58207 8.69393 7.70747 8.04432C7.83287 7.39471 8.1424 6.79801 8.59692 6.32967C9.05144 5.86133 9.63054 5.54238 10.261 5.41317C10.8914 5.28395 11.5449 5.35027 12.1387 5.60374C12.7326 5.8572 13.2402 6.28643 13.5973 6.83714C13.9544 7.38785 14.145 8.03531 14.145 8.69764C14.144 9.58548 13.8012 10.4366 13.192 11.0644C12.5827 11.6922 11.7567 12.0454 10.895 12.0465Z"
    fill="#D1FF00" />
  <path
    d="M10.8949 10.7071C11.9719 10.7071 12.8449 9.80755 12.8449 8.69785C12.8449 7.58815 11.9719 6.68856 10.8949 6.68856C9.81797 6.68856 8.94492 7.58815 8.94492 8.69785C8.94492 9.80755 9.81797 10.7071 10.8949 10.7071Z"
    fill="#D1FF00" />
</svg>
  