<svg width="21" height="20" viewBox="0 0 21 20" fill="none" xmlns="http://www.w3.org/2000/svg">
  <path
    d="M16.2274 4.44315C14.7455 2.96051 12.7748 2.14336 10.6753 2.14258C6.3489 2.14258 2.82794 5.66179 2.82637 9.98794C2.82558 11.3708 3.18703 12.7206 3.87378 13.9102L2.80908 17.8569L6.92093 16.8849C8.06734 17.5104 9.35755 17.8396 10.6713 17.8404H10.6745C15 17.8404 18.521 14.3204 18.5234 9.99501C18.5249 7.89794 17.7093 5.92658 16.2274 4.44315ZM14.5152 12.7922C14.3518 13.2502 13.5511 13.6918 13.1912 13.724C12.8314 13.757 12.4943 13.8866 10.8379 13.2337C8.84445 12.448 7.58568 10.4044 7.48824 10.2739C7.39002 10.1427 6.68756 9.21086 6.68756 8.24601C6.68756 7.28115 7.19437 6.80658 7.37431 6.61094C7.55425 6.41451 7.7664 6.36579 7.89762 6.36579C8.02806 6.36579 8.15928 6.36579 8.27321 6.37051C8.41308 6.37601 8.56787 6.38308 8.7148 6.70915C8.88924 7.09729 9.27033 8.06686 9.31905 8.16508C9.36777 8.26329 9.40077 8.37801 9.33555 8.50844C9.27033 8.63886 9.23733 8.72058 9.1399 8.83529C9.04168 8.95001 8.93403 9.09065 8.84603 9.17865C8.74781 9.27608 8.64566 9.38294 8.75959 9.57858C8.87431 9.77501 9.26719 10.4169 9.85022 10.9363C10.5998 11.6042 11.2308 11.8108 11.4272 11.9098C11.6237 12.008 11.7376 11.9915 11.8523 11.8603C11.967 11.7299 12.3426 11.2883 12.4731 11.0919C12.6035 10.8954 12.7347 10.9284 12.9147 10.9937C13.0946 11.0589 14.0587 11.5334 14.2544 11.6316C14.4508 11.7299 14.5812 11.7786 14.63 11.8603C14.6787 11.9412 14.6787 12.3341 14.5152 12.7922Z"
    fill="#D1FF00" />
</svg>
  