<svg width="21" height="20" viewBox="0 0 21 20" fill="none" xmlns="http://www.w3.org/2000/svg">
  <path
    d="M10.7285 2.00024C9.00519 2.00219 7.35299 2.70846 6.13441 3.96409C4.91584 5.21972 4.23041 6.92216 4.22852 8.69789C4.22852 12.2356 9.68852 17.092 10.3086 17.6346L10.7285 18.0002L11.1484 17.6346C11.7685 17.092 17.2285 12.2356 17.2285 8.69789C17.2266 6.92216 16.5412 5.21972 15.3226 3.96409C14.104 2.70846 12.4518 2.00219 10.7285 2.00024ZM10.7285 12.0467C10.0857 12.0467 9.45737 11.8503 8.92291 11.4823C8.38845 11.1144 7.97189 10.5913 7.72591 9.97943C7.47992 9.36751 7.41556 8.69417 7.54096 8.04457C7.66637 7.39496 7.9759 6.79825 8.43042 6.32991C8.88494 5.86157 9.46403 5.54263 10.0945 5.41341C10.7249 5.2842 11.3784 5.35052 11.9722 5.60398C12.5661 5.85744 13.0737 6.28667 13.4308 6.83738C13.7879 7.38809 13.9785 8.03555 13.9785 8.69789C13.9775 9.58572 13.6347 10.4369 13.0255 11.0647C12.4162 11.6925 11.5902 12.0456 10.7285 12.0467Z"
    fill="#00AEEF" />
  <path
    d="M10.7284 10.7074C11.8054 10.7074 12.6784 9.8078 12.6784 8.6981C12.6784 7.58839 11.8054 6.6888 10.7284 6.6888C9.65146 6.6888 8.77842 7.58839 8.77842 8.6981C8.77842 9.8078 9.65146 10.7074 10.7284 10.7074Z"
    fill="#00AEEF" />
</svg>