<svg width="21" height="20" viewBox="0 0 21 20" fill="none" xmlns="http://www.w3.org/2000/svg">
  <path
    d="M6.89763 13.6026C4.09884 10.8038 2.88337 8.23788 2.57944 7.52496C2.52444 7.39593 2.5 7.25772 2.5 7.11745V4.91044C2.5 4.59599 2.62491 4.29442 2.84726 4.07207L4.57183 2.34751C5.03484 1.88449 5.78555 1.88449 6.24857 2.34751L8.60316 4.7021C9.00279 5.10173 9.06479 5.72789 8.75129 6.19814L7.73199 7.7271C7.49598 8.08112 7.46695 8.53418 7.67502 8.9053C8.0406 9.55735 8.66553 10.5849 9.29046 11.2098C9.91538 11.8347 10.9429 12.4596 11.5949 12.8252C11.9661 13.0333 12.4191 13.0043 12.7731 12.7683L14.3021 11.749C14.7724 11.4355 15.3985 11.4975 15.7981 11.8971L18.1527 14.2517C18.6158 14.7147 18.6158 15.4654 18.1527 15.9284L16.4282 17.653C16.2058 17.8753 15.9043 18.0002 15.5898 18.0002H13.3828C13.2425 18.0002 13.1043 17.9758 12.9753 17.9208C12.2624 17.6169 9.69642 16.4014 6.89763 13.6026Z"
    fill="#00AEEF" />
</svg>