<svg width="21" height="20" viewBox="0 0 21 20" fill="none" xmlns="http://www.w3.org/2000/svg">
  <path
    d="M16.0609 4.44352C14.579 2.96087 12.6083 2.14373 10.5088 2.14294C6.1824 2.14294 2.66144 5.66216 2.65986 9.9883C2.65908 11.3712 3.02053 12.721 3.70727 13.9106L2.64258 17.8572L6.75443 16.8853C7.90084 17.5107 9.19105 17.8399 10.5048 17.8407H10.508C14.8335 17.8407 18.3545 14.3207 18.3569 9.99537C18.3584 7.8983 17.5428 5.92694 16.0609 4.44352ZM14.3487 12.7925C14.1853 13.2506 13.3846 13.6922 13.0247 13.7244C12.6649 13.7574 12.3278 13.887 10.6714 13.2341C8.67795 12.4484 7.41917 10.4047 7.32174 10.2743C7.22352 10.1431 6.52106 9.21123 6.52106 8.24637C6.52106 7.28152 7.02787 6.80694 7.20781 6.6113C7.38774 6.41487 7.5999 6.36616 7.73112 6.36616C7.86155 6.36616 7.99277 6.36616 8.10671 6.37087C8.24657 6.37637 8.40136 6.38344 8.5483 6.70952C8.72274 7.09766 9.10383 8.06723 9.15254 8.16544C9.20126 8.26366 9.23426 8.37837 9.16905 8.5088C9.10383 8.63923 9.07083 8.72094 8.97339 8.83566C8.87517 8.95037 8.76753 9.09102 8.67952 9.17902C8.5813 9.27644 8.47915 9.3833 8.59309 9.57894C8.70781 9.77537 9.10069 10.4173 9.68371 10.9367C10.4333 11.6045 11.0643 11.8112 11.2607 11.9102C11.4572 12.0084 11.5711 11.9919 11.6858 11.8607C11.8005 11.7302 12.1761 11.2887 12.3066 11.0922C12.437 10.8958 12.5682 10.9288 12.7482 10.994C12.9281 11.0592 13.8922 11.5338 14.0879 11.632C14.2843 11.7302 14.4147 11.7789 14.4635 11.8607C14.5122 11.9416 14.5122 12.3344 14.3487 12.7925Z"
    fill="#00AEEF" />
</svg>