<svg width="18" height="18" viewBox="0 0 18 18" fill="none" xmlns="http://www.w3.org/2000/svg">
  <path
    d="M0.720703 17.279L1.89099 13.0293C1.16747 11.782 0.787916 10.3693 0.791869 8.92524C0.791869 4.40011 4.49252 0.720983 9.0353 0.720983C11.2414 0.720983 13.3132 1.57485 14.867 3.1252C16.4247 4.67555 17.2827 6.73744 17.2787 8.92917C17.2787 13.4543 13.5781 17.1334 9.03134 17.1334H9.02739C7.64755 17.1334 6.29144 16.7872 5.08557 16.134L0.720703 17.279ZM5.29511 14.6505L5.54419 14.8C6.59587 15.4217 7.80175 15.7483 9.03134 15.7523H9.0353C12.8111 15.7523 15.887 12.6949 15.887 8.93311C15.887 7.11125 15.1754 5.39957 13.8825 4.10893C12.5897 2.81828 10.8659 2.11 9.0353 2.11C5.25953 2.10607 2.18357 5.16348 2.18357 8.92524C2.18357 10.2119 2.54335 11.4672 3.23129 12.5532L3.39339 12.8129L2.7015 15.3273L5.29511 14.6505Z"
    fill="white" />
  <path
    d="M0.720703 17.279L1.89099 13.0293C1.16747 11.782 0.787916 10.3693 0.791869 8.92524C0.791869 4.40011 4.49252 0.720983 9.0353 0.720983C11.2414 0.720983 13.3132 1.57485 14.867 3.1252C16.4247 4.67555 17.2827 6.73744 17.2787 8.92917C17.2787 13.4543 13.5781 17.1334 9.03134 17.1334H9.02739C7.64755 17.1334 6.29144 16.7872 5.08557 16.134L0.720703 17.279ZM5.29511 14.6505L5.54419 14.8C6.59587 15.4217 7.80175 15.7483 9.03134 15.7523H9.0353C12.8111 15.7523 15.887 12.6949 15.887 8.93311C15.887 7.11125 15.1754 5.39957 13.8825 4.10893C12.5897 2.81828 10.8659 2.11 9.0353 2.11C5.25953 2.10607 2.18357 5.16348 2.18357 8.92524C2.18357 10.2119 2.54335 11.4672 3.23129 12.5532L3.39339 12.8129L2.7015 15.3273L5.29511 14.6505Z"
    fill="white" />
  <path fill-rule="evenodd" clip-rule="evenodd"
    d="M6.97523 5.49405C6.82104 5.15171 6.65894 5.14384 6.51265 5.13991C6.39404 5.13597 6.25566 5.13597 6.11728 5.13597C5.97891 5.13597 5.7575 5.18712 5.56772 5.39174C5.37795 5.59635 4.84815 6.09215 4.84815 7.10342C4.84815 8.11075 5.58749 9.08661 5.69029 9.22433C5.79308 9.36205 7.11757 11.4987 9.20906 12.3211C10.9487 13.0058 11.3045 12.868 11.6801 12.8326C12.0557 12.7972 12.8978 12.3368 13.0718 11.8568C13.2418 11.3767 13.2418 10.9675 13.1904 10.8809C13.139 10.7943 13.0006 10.7432 12.7951 10.6409C12.5895 10.5386 11.5773 10.0428 11.3875 9.97196C11.1978 9.90506 11.0594 9.86965 10.925 10.0743C10.7866 10.2789 10.3912 10.7393 10.2726 10.877C10.154 11.0147 10.0314 11.0304 9.82584 10.9281C9.62025 10.8258 8.95603 10.6094 8.16925 9.909C7.55642 9.36598 7.14129 8.69312 7.02268 8.4885C6.90407 8.28389 7.01082 8.17371 7.11361 8.0714C7.20455 7.9809 7.3192 7.83137 7.422 7.71333C7.5248 7.59528 7.56038 7.50871 7.62759 7.37099C7.6948 7.23327 7.66317 7.11522 7.61178 7.01292C7.56038 6.91454 7.1571 5.89934 6.97523 5.49405Z"
    fill="white" />
</svg>