<svg width="64" height="64" viewBox="0 0 64 64" fill="none" xmlns="http://www.w3.org/2000/svg">
<path d="M16.9273 55.7435H36.3011C37.8686 55.7435 39.3877 55.2077 40.6005 54.2271L53.6915 43.6426C55.0346 42.5588 55.2473 40.615 54.1805 39.2738C53.0797 37.8899 51.0015 37.707 49.6216 38.8205L40.1244 46.4845M26.8973 48.11H37.253C39.0081 48.11 40.4309 46.7047 40.4309 44.9712C40.4309 43.2378 39.0081 41.8325 37.253 41.8325H31.6682C30.0742 41.8325 28.4866 41.5944 26.975 41.0946C25.9913 40.7693 24.6071 40.4595 22.9032 40.4595C19.3161 40.4595 16.7377 41.8325 16.7377 41.8325M16.7377 41.8325L9.14453 41.8325V59.4288H16.7376L16.7377 41.8325Z" stroke="white" stroke-width="3" stroke-miterlimit="10" stroke-linecap="round" stroke-linejoin="round"/>
<path d="M34.481 13.1938C33.7551 12.7676 32.0067 11.9889 30.657 12.549C28.8487 13.2993 28.5232 15.3438 29.8166 16.649C30.621 17.4607 31.5059 17.606 32.9767 18.1642C34.8148 18.8619 35.4778 20.4571 35.045 21.9292C34.676 23.184 33.4671 24.0965 31.8477 24.0965C30.8525 24.0965 29.7516 23.7703 28.8409 23.1573M32.0037 24.2761V25.8055M32.0037 10.7665V12.2188M41.7008 8.5886C47.0566 13.9444 47.0566 22.6278 41.7008 27.9835C36.3451 33.3393 27.6616 33.3393 22.3059 27.9835C16.9501 22.6278 16.9501 13.9444 22.3059 8.5886C27.6616 3.23284 36.345 3.23284 41.7008 8.5886Z" stroke="#F2CC37" stroke-width="3" stroke-miterlimit="10" stroke-linecap="round" stroke-linejoin="round"/>
</svg>
