<svg width="64" height="64" viewBox="0 0 64 64" fill="none" xmlns="http://www.w3.org/2000/svg">
<g clip-path="url(#clip0_7534_12433)">
<mask id="mask0_7534_12433" style="mask-type:luminance" maskUnits="userSpaceOnUse" x="0" y="0" width="64" height="64">
<path d="M62.5 62.5V1.50001H1.5V62.5H62.5Z" fill="white" stroke="white" stroke-width="3"/>
</mask>
<g mask="url(#mask0_7534_12433)">
<path d="M41.1964 38.8693L39.6649 58.3084C39.1999 61.1704 42.9252 62.7009 44.6164 60.3427L60.4505 33.7742C63.0672 30.1249 60.4484 25.25 55.9464 25.25H49.375L51.0856 5.6893C51.548 2.82818 47.8241 1.30005 46.1337 3.6573L30.0407 30.25C27.424 33.8992 30.0427 38.8693 34.5449 38.8693H41.1964Z" stroke="white" stroke-width="3" stroke-miterlimit="10" stroke-linecap="round" stroke-linejoin="round"/>
<path d="M5 31.9985H2.5" stroke="#F2CC37" stroke-width="3" stroke-miterlimit="10" stroke-linecap="round" stroke-linejoin="round"/>
<path d="M18.5001 8.61719L17.25 6.45219" stroke="#F2CC37" stroke-width="3" stroke-miterlimit="10" stroke-linecap="round" stroke-linejoin="round"/>
<path d="M8.45572 18.7505L6.27734 17.5239" stroke="#F2CC37" stroke-width="3" stroke-miterlimit="10" stroke-linecap="round" stroke-linejoin="round"/>
<path d="M31.625 5V2.50012" stroke="#F2CC37" stroke-width="3" stroke-miterlimit="10" stroke-linecap="round" stroke-linejoin="round"/>
<path d="M8.37337 45.1004L6.1875 46.3135" stroke="#F2CC37" stroke-width="3" stroke-miterlimit="10" stroke-linecap="round" stroke-linejoin="round"/>
<path d="M18.5001 55.3829L17.25 57.5479" stroke="#F2CC37" stroke-width="3" stroke-miterlimit="10" stroke-linecap="round" stroke-linejoin="round"/>
<path d="M31.625 59.0001V61.5" stroke="#F2CC37" stroke-width="3" stroke-miterlimit="10" stroke-linecap="round" stroke-linejoin="round"/>
<path d="M31 48.9722C22.0766 48.4545 15 41.0543 15 32.001V32.0004V31.9992V31.9985C15 23.7212 20.9157 16.7665 28.75 15.2498" stroke="#F2CC37" stroke-width="3" stroke-miterlimit="10" stroke-linecap="round" stroke-linejoin="round"/>
</g>
</g>
<defs>
<clipPath id="clip0_7534_12433">
<rect width="64" height="64" fill="white"/>
</clipPath>
</defs>
</svg>
