<svg width="227" height="40" viewBox="0 0 227 40" fill="none" xmlns="http://www.w3.org/2000/svg">
  <path
    d="M52.7261 5.25018C57.1381 5.25018 59.4062 7.89117 59.4062 12.5051V13.4062H55.1185V12.2099C55.1185 10.1438 54.2951 9.36701 52.8504 9.36701C51.4056 9.36701 50.5822 10.1593 50.5822 12.2099C50.5822 18.1444 59.4528 19.2629 59.4528 27.4966C59.4528 32.1105 57.1381 34.7515 52.695 34.7515C48.2364 34.7515 45.9372 32.1105 45.9372 27.4966V25.7256H50.2249V27.7917C50.2249 29.8579 51.126 30.5881 52.5707 30.5881C54.0155 30.5881 54.9166 29.8424 54.9166 27.7917C54.9166 21.8573 46.046 20.7388 46.046 12.5051C46.0615 7.89117 48.3296 5.25018 52.7261 5.25018Z"
    fill="#F1CB37" />
  <path
    d="M67.9816 12.5049C67.9816 7.89098 70.4207 5.25 74.8638 5.25C79.3224 5.25 81.7458 7.89098 81.7458 12.5049V27.4964C81.7458 32.1103 79.3068 34.7513 74.8638 34.7513C70.4207 34.7513 67.9816 32.1103 67.9816 27.4964V12.5049ZM72.5179 27.7916C72.5179 29.8577 73.419 30.6345 74.8638 30.6345C76.3085 30.6345 77.2096 29.8577 77.2096 27.7916V12.2098C77.2096 10.1436 76.3085 9.36682 74.8638 9.36682C73.419 9.36682 72.5179 10.1591 72.5179 12.2098V27.7916Z"
    fill="#F1CB37" />
  <path d="M89.1094 5.25H93.6457V30.5413H101.103V34.7513H89.1094V5.25Z" fill="#F1CB37" />
  <path
    d="M123.069 34.7514H118.486L117.694 29.3918H112.133L111.356 34.7514H107.192L111.806 5.23456H118.44L123.069 34.7514ZM112.723 25.3992H117.088L114.898 10.4699L112.723 25.3992Z"
    fill="#F1CB37" />
  <path
    d="M139.754 34.7513C139.506 33.9901 139.35 33.524 139.35 31.1316V26.4866C139.35 23.7524 138.449 22.7426 136.383 22.7426H134.814V34.7669H130.278V5.25H137.129C141.82 5.25 143.84 7.48707 143.84 12.0389V14.3536C143.84 17.383 142.892 19.3715 140.873 20.3347C143.141 21.3134 143.886 23.5349 143.886 26.6109V31.1627C143.886 32.5919 143.933 33.6483 144.384 34.7513H139.754ZM134.798 9.46004V18.5326H136.569C138.263 18.5326 139.288 17.7714 139.288 15.41V12.4894C139.288 10.3766 138.589 9.46004 136.973 9.46004H134.798Z"
    fill="#F1CB37" />
  <path
    d="M158.133 29.3303L161.597 5.2818H165.76L161.302 34.7676H154.544L150.101 5.2818H154.684L158.133 29.3303Z"
    fill="#F1CB37" />
  <path
    d="M173.217 12.5055C173.217 7.89159 175.656 5.25061 180.099 5.25061C184.542 5.25061 186.981 7.89159 186.981 12.5055V27.497C186.981 32.111 184.542 34.7519 180.099 34.7519C175.641 34.7519 173.217 32.111 173.217 27.497V12.5055ZM177.754 27.7922C177.754 29.8583 178.655 30.6351 180.099 30.6351C181.544 30.6351 182.445 29.8583 182.445 27.7922V12.2104C182.445 10.1442 181.544 9.36743 180.099 9.36743C178.655 9.36743 177.754 10.1597 177.754 12.2104V27.7922Z"
    fill="#F1CB37" />
  <path d="M196.287 5.25061H200.823V30.5419H208.28V34.7519H196.287V5.25061Z" fill="#F1CB37" />
  <path d="M212.987 5.25061H227V9.46065H222.262V34.7675H217.726V9.46065H212.987V5.25061Z"
    fill="#F1CB37" />
  <path
    d="M19.9161 0C19.3879 0 18.8441 0.201957 18.4402 0.605872L11.8689 7.17726C11.061 7.98509 11.061 9.30558 11.8689 10.1289L18.4402 16.7003C18.8441 17.1042 19.3723 17.3062 19.9161 17.3062C20.4443 17.3062 20.988 17.1042 21.3919 16.7003L27.9633 10.1289C28.7712 9.32111 28.7712 8.00062 27.9633 7.19279L21.3919 0.621407C20.9725 0.201957 20.4443 0 19.9161 0Z"
    fill="#F1CB37" />
  <path
    d="M9.27446 12.0084L16.5604 19.2944V20.7391L9.27446 28.0251H7.82972L0.543732 20.7391V19.2944L7.82972 12.0084H9.27446ZM9.50749 11.4491H7.61224L0 19.0613V20.9566L7.61224 28.5689H9.50749L17.1197 20.9566V19.0613L9.50749 11.4491Z"
    fill="#F1CB37" />
  <path
    d="M20.6307 23.3644L27.9167 30.6504V32.0952L20.6307 39.3657H19.1859L11.8999 32.0797V30.6349L19.1859 23.3644H20.6307ZM20.8637 22.8052H18.9684L11.3561 30.4174V32.3127L18.9684 39.925H20.8637L28.4759 32.3127V30.4174L20.8637 22.8052Z"
    fill="#F1CB37" />
  <path
    d="M31.9869 12.0084L39.2729 19.2944V20.7391L31.9869 28.0251H30.5421L23.2561 20.7391V19.2944L30.5421 12.0084H31.9869ZM32.22 11.4491H30.3246L22.7124 19.0613V20.9566L30.3246 28.5689H32.22L39.8322 20.9566V19.0613L32.22 11.4491Z"
    fill="#F1CB37" />
</svg>
  