<svg width="874" height="190" viewBox="0 0 874 190" fill="none" xmlns="http://www.w3.org/2000/svg">
<path d="M21.092 149.311C20.4011 147.929 19.0959 147.084 18.0594 146.01C15.4107 143.169 12.4548 140.635 9.998 137.641C3.66403 129.887 -0.328294 121.173 0.170746 110.923C0.631398 102.017 4.50856 94.8387 11.7254 89.6564C14.451 87.6986 17.522 86.1631 20.8617 85.3186C21.2072 85.2418 21.5527 85.165 21.5911 84.7812C21.6295 84.3973 21.3224 84.2053 21.092 83.975C17.0613 80.4817 13.4145 76.643 9.88283 72.6506C6.65827 68.9654 4.0479 64.8579 2.39723 60.3282C0.631398 55.5297 -0.174744 50.5009 0.209133 45.2418C0.516235 41.0959 1.59109 37.2188 3.39531 33.572C5.16115 30.0019 7.84829 27.1228 11.1112 24.8579C13.6448 23.0537 16.4087 21.5566 19.3262 20.4818C21.8598 19.5604 24.5085 18.7927 27.2341 18.524C47.0037 16.643 66.8118 18.1401 86.5815 17.6027C91.1496 17.4875 95.7561 17.5643 100.324 16.7965C103.51 16.2591 106.927 12.9194 107.464 9.57965C107.81 7.50671 108.155 5.43377 108.04 3.28406C107.963 1.86372 108.578 1.13435 110.075 1.21113C110.919 1.24951 111.802 1.32629 112.647 1.21113C114.221 0.9808 114.604 1.86372 114.796 3.1689C115.18 5.85604 115.065 8.58156 115.948 11.2303C117.138 14.8388 119.48 16.7581 123.203 17.4107C127.004 18.0633 130.842 18.2169 134.643 18.2169C150.919 18.2553 167.196 18.332 183.434 18.1017C188.846 18.0249 194.336 18.2169 199.748 17.0269C203.395 16.2591 205.507 12.8426 204.585 8.58156C204.201 6.89251 203.817 5.24183 203.395 3.55278C203.242 2.97696 203.165 2.32437 203.702 1.97888C205.046 1.13435 206.505 0.48176 208.002 0.059495C208.808 -0.170831 209.345 0.289821 209.652 1.05758C212.032 6.85412 214.259 12.689 216.793 18.4472C218.674 22.7466 220.209 27.1612 222.052 31.4606C223.126 33.9942 222.627 36.5662 222.743 39.0998C222.781 39.8292 222.09 39.8675 221.476 39.9443C217.714 40.3282 213.913 40.1363 210.113 40.1363C207.733 40.1363 205.353 40.4817 202.973 40.1746C202.666 40.1363 202.397 40.213 202.244 40.5585C204.739 43.4376 207.234 46.2783 209.96 48.9654C214.758 53.6487 218.558 59.0614 220.785 65.3186C223.242 72.2668 223.626 79.3685 221.322 86.5854C219.173 93.2264 214.912 98.0633 209.192 101.672C207.311 102.862 205.161 103.86 202.896 104.359C202.474 104.474 202.013 104.512 201.86 105.011C201.706 105.549 202.167 105.741 202.474 106.048C209.269 112.727 216.293 119.253 220.055 128.274C222.128 133.226 223.011 138.409 222.819 143.821C222.627 148.773 221.437 153.342 218.865 157.603C215.641 162.939 210.842 166.432 205.238 168.812C200.017 171 194.528 171.883 188.846 172.075C169 172.689 149.115 172.152 129.269 172.343C126.735 172.382 124.317 172.919 121.898 173.38C118.981 173.956 117.714 176.297 116.793 178.908C115.871 181.557 115.219 184.205 114.988 187.008C114.912 188.006 114.297 188.543 113.338 188.697C113.261 188.697 113.146 188.697 113.069 188.735C108.347 189.157 107.925 188.812 108.002 184.129C108.04 181.518 107.695 179.061 106.428 176.796C105.008 174.186 102.589 172.996 99.902 172.42C95.7177 171.499 91.4183 171.691 87.1573 171.691C74.4893 171.729 61.8214 171.653 49.1535 171.729C41.4759 171.768 33.7984 171.537 26.1592 172.382C24.2782 172.574 22.474 173.226 20.8617 174.071C18.3281 175.338 18.2897 177.871 18.4049 180.328C18.5201 182.516 19.5949 184.436 19.8252 186.624C19.8636 187.161 19.902 187.583 19.4414 187.891C18.0978 188.735 16.6007 189.234 15.1036 189.656C13.9135 190.002 13.3761 189.042 13.0306 188.121C11.2264 183.706 9.49896 179.253 7.69474 174.8C5.39147 169.196 3.04982 163.591 0.708173 157.986C-0.289907 155.645 -0.0211928 153.188 0.247521 150.77C0.362684 149.695 1.47593 149.772 2.35884 149.772C8.00184 149.772 13.6832 149.772 19.3262 149.772C19.9404 149.772 20.5546 149.963 21.092 149.311ZM64.3166 105.357C57.1381 105.587 47.5412 105.011 37.9442 105.587C34.1055 105.818 30.3435 106.201 26.735 107.699C20.094 110.501 17.1765 115.146 16.4471 121.825C15.9481 126.125 17.2533 130.232 19.211 133.994C21.4759 138.332 23.9711 142.593 27.3876 146.201C29.1918 148.082 30.8041 150.194 33.8751 149.656C34.6429 149.541 35.4874 149.772 36.2936 149.772C49.9212 149.772 63.5488 149.772 77.1765 149.772C82.8962 149.772 88.5776 149.887 94.2974 149.503C97.1765 149.311 100.171 149.426 102.858 148.082C105.391 146.816 107.004 144.896 107.503 141.979C107.963 139.368 108.002 136.758 108.04 134.109C108.079 133.035 108.309 132.036 109.652 131.998C110.842 131.96 112.071 131.96 113.261 132.036C114.489 132.113 115.027 132.843 114.912 134.071C114.681 137.219 115.449 140.251 116.063 143.284C116.332 144.666 117.1 146.048 118.098 147.161C120.094 149.311 122.743 149.925 125.507 150.04C129.23 150.194 132.992 150.347 136.716 150.309C154.451 150.079 172.224 150.962 189.96 149.733C192.839 149.541 195.756 148.965 198.29 147.66C203.51 144.973 206.006 140.482 206.274 134.532C206.581 127.161 203.626 121.096 199.633 115.299C197.829 112.651 195.372 110.501 193.453 107.967C192.378 106.547 191.15 106.048 189.537 106.163C184.317 106.585 179.096 106.278 173.875 106.355C157.484 106.585 141.092 105.971 124.662 106.701C121.514 106.854 118.981 108.159 117.675 110.923C116.255 113.917 115.18 117.104 115.295 120.597C115.372 123.246 114.451 123.975 111.879 124.013C111.303 124.013 110.727 124.013 110.152 124.013C108.731 124.052 107.963 123.553 108.04 122.017C108.194 118.754 108.04 115.491 107.157 112.344C106.428 109.772 104.777 107.891 102.32 106.701C99.0959 105.127 95.5642 105.472 92.1477 105.395C83.7024 105.203 75.2187 105.357 64.3166 105.357ZM66.8886 39.6756C55.7178 39.8292 44.5469 39.1766 33.3761 40.0211C30.1515 40.2514 27.0037 40.9808 24.1631 42.5547C21.5911 43.975 19.6333 46.048 18.3665 49.0038C17.1765 51.8061 16.7158 54.6084 16.7542 57.5259C16.831 62.3243 18.6352 66.7389 21.0153 70.808C23.6256 75.261 26.9654 79.2149 30.6122 82.8618C31.1496 83.4376 31.7638 83.6295 32.5316 83.6295C54.7581 83.284 77.0229 84.3205 99.2494 83.0537C101.821 82.9002 104.125 81.9789 105.622 79.7524C107.541 76.8733 108.002 73.5719 108.04 70.1554C108.04 65.6641 108.309 65.4721 112.839 65.856C114.374 65.9712 114.758 66.6622 114.873 68.0441C115.065 70.5777 115.334 73.1113 115.679 75.6065C116.562 81.9405 120.401 83.6679 123.741 84.1286C125.814 84.4357 127.963 84.474 130.036 84.474C147.08 84.5124 164.086 84.5124 181.13 84.474C184.125 84.474 187.157 84.3589 190.151 83.9366C193.913 83.3608 197.56 82.4779 200.631 80.0595C207.311 74.8771 207.733 66.0863 205.161 58.9846C204.125 56.1055 202.512 53.5719 200.977 51C198.789 47.3531 196.217 43.975 192.915 41.2111C192.186 40.5969 191.38 40.2898 190.42 40.2898C169.038 40.4817 147.656 39.8675 126.236 40.6737C123.395 40.7888 120.363 41.0576 118.443 43.6679C116.908 45.7792 115.986 48.1977 115.603 50.7696C115.334 52.5355 115.257 54.3013 115.027 56.0671C114.873 57.4107 113.99 58.1017 112.647 58.1017C111.61 58.1017 110.535 57.9482 109.499 57.9482C108.462 57.9482 108.04 57.4491 108.002 56.451C108.002 54.57 108.04 52.689 107.925 50.8464C107.771 48.2744 107.119 45.7792 105.66 43.7063C103.702 40.904 100.67 39.8675 97.4068 39.8292C87.3108 39.6372 77.0997 39.6756 66.8886 39.6756Z" fill="white"/>
<path d="M300.915 83.1306C302.47 81.85 304.025 80.5237 305.626 79.2888C312.166 74.3492 319.484 73.6174 326.985 76.2701C330.278 77.4136 332.976 79.9748 334.669 83.3136C335.812 85.5547 335.858 85.509 337.596 83.8624C340.706 80.8895 343.907 78.0539 347.978 76.4988C354.427 74.029 363.3 73.7546 369.017 79.3345C371.121 81.3927 372.721 83.8167 373.408 86.7438C374.368 90.6315 374.688 94.6106 374.734 98.6354C374.78 107.508 374.734 116.335 374.78 125.208C374.78 127.998 374.917 130.788 375.146 133.578C375.283 135.591 376.609 136.597 378.484 137.191C379.811 137.603 381.64 137.42 381.686 139.753C381.732 141.536 380.817 142.04 379.445 142.04C369.383 142.085 359.321 142.04 349.259 142.04C347.978 142.04 347.292 141.399 347.2 140.256C347.109 139.158 347.063 138.106 348.664 137.649C352.78 136.505 353.695 135.27 353.969 130.971C354.701 120.086 354.244 109.155 354.198 98.2238C354.198 95.2509 354.152 92.1865 353.192 89.2594C352.186 86.1035 348.801 84.6857 345.783 86.1493C342.627 87.6586 340.386 90.0826 338.327 92.7811C337.779 93.5129 337.641 94.4733 337.641 95.3881C337.641 107.005 337.596 118.577 337.779 130.194C337.824 131.977 337.596 133.944 338.831 135.636C339.974 137.237 341.758 137.329 343.359 137.695C345.051 138.106 344.41 139.341 344.639 140.256C344.868 141.262 344.273 141.765 343.359 141.948C342.81 142.04 342.215 142.085 341.666 142.085C332.427 142.085 323.143 142.085 313.904 142.085C313.401 142.085 312.852 142.085 312.349 142.04C311.343 141.948 310.337 141.857 310.382 140.439C310.428 139.204 310.062 138.015 311.937 137.603C315.779 136.688 316.465 135.545 316.648 131.612C317.197 120.132 316.831 108.652 316.831 97.1718C316.831 94.6106 316.968 91.9121 316.099 89.3508C314.865 85.8748 311.023 84.5027 307.867 86.3322C305.534 87.6586 303.751 89.5338 302.058 91.5462C300.915 92.9183 300.366 94.4733 300.366 96.2571C300.366 107.28 300.32 118.302 300.412 129.37C300.412 131.108 300.732 132.892 301.235 134.584C301.83 136.643 303.705 137.466 305.58 137.695C307.547 137.923 307.227 139.158 307.227 140.393C307.227 141.902 306.175 142.131 304.985 142.131C297.713 142.131 290.487 142.131 283.215 142.131C280.608 142.131 277.955 142.085 275.348 142.131C274.067 142.131 273.061 141.811 272.878 140.347C272.741 138.929 273.198 138.015 274.753 137.603C278.778 136.597 279.51 135.682 279.556 131.566C279.602 116.701 279.556 101.837 279.556 86.9725C279.556 83.8624 278.229 82.2616 275.302 81.4384C273.884 81.0725 272.741 80.5237 272.924 78.6485C273.061 77.3678 273.564 76.7275 274.982 76.7275C282.803 76.7732 290.624 76.7732 298.491 76.7275C299.909 76.7275 300.457 77.2306 300.412 78.6485C300.32 80.112 300.412 81.5756 300.412 83.0392C300.549 82.9934 300.732 83.0849 300.915 83.1306Z" fill="white"/>
<path d="M430.944 135.408C428.383 137.558 426.279 139.707 423.627 141.079C416.126 145.013 405.743 145.424 399.386 137.146C396.093 132.892 395.636 128.044 395.544 123.105C395.361 113.317 395.544 103.575 395.453 93.7875C395.407 90.9519 395.361 88.0704 394.812 85.2805C394.401 83.2681 393.349 81.896 391.199 81.4844C390.193 81.3014 389.141 81.027 388.684 79.9293C387.906 78.0998 388.867 76.682 390.879 76.682C398.38 76.682 405.835 76.682 413.336 76.682C415.851 76.682 415.988 76.8192 415.988 79.289C415.988 93.1015 415.988 106.96 416.034 120.772C416.034 123.288 416.171 125.803 416.4 128.273C416.675 131.566 419.785 133.487 423.032 132.481C426.92 131.246 428.978 127.999 431.082 124.888C431.31 124.523 431.219 123.882 431.219 123.379C431.219 111.945 431.219 100.511 431.219 89.0767C431.219 87.1557 430.67 85.372 430.075 83.5883C429.709 82.4906 428.703 81.9875 427.606 81.6673C424.77 80.8898 424.13 80.1123 424.358 78.1456C424.495 77.1851 424.907 76.682 425.913 76.682C434.009 76.682 442.15 76.682 450.245 76.682C451.16 76.682 451.572 77.1394 451.8 77.9626C452.12 79.1975 451.983 80.4782 451.983 81.713C451.983 97.9953 451.983 114.278 452.029 130.606C452.029 135.637 453.493 136.963 457.151 137.558C458.615 137.786 458.844 138.792 458.844 140.073C458.844 141.491 457.929 141.811 456.831 141.948C455.871 142.04 454.91 142.04 453.904 142.04C447.455 142.04 441.006 142.085 434.512 142.04C431.356 142.04 431.127 141.811 431.127 138.655C431.127 137.695 431.036 136.734 430.944 135.408Z" fill="white"/>
<path d="M709.252 106.594C709.252 114.003 708.703 119.309 706.828 124.34C704.13 131.475 699.556 137.009 692.833 140.759C687.39 143.823 681.49 144.006 675.544 143.686C670.147 143.366 665.116 141.903 660.817 138.472C657.844 136.094 655.374 133.304 653.499 130.011C649.84 123.699 647.965 116.885 648.056 109.612C648.148 100.648 650.618 92.3697 656.243 85.2805C660.177 80.2952 665.208 76.7734 671.474 75.4928C681.261 73.4804 690.226 75.4471 697.955 81.8959C706.279 88.8479 708.841 98.3154 709.252 106.594ZM669.736 111.716C669.736 113.957 669.69 116.153 669.736 118.394C669.781 120.681 669.827 122.968 670.147 125.209C670.605 128.181 670.788 131.246 672.571 133.853C675.59 138.381 681.856 138.472 684.509 133.99C686.384 130.834 686.841 127.358 687.024 123.837C687.527 114.323 688.213 104.81 687.344 95.2968C686.978 91.3177 686.612 87.3386 684.051 83.9998C681.81 81.1184 677.191 80.844 674.629 82.9022C671.519 85.4634 670.925 89.0309 670.513 92.5069C669.873 98.91 669.644 105.313 669.736 111.716Z" fill="white"/>
<path d="M818.975 109.704C819.478 114.323 818.38 119.171 816.871 123.928C815.59 127.999 813.212 131.52 810.376 134.676C807.312 138.061 803.744 140.759 799.353 142.223C793.774 144.098 788.056 144.098 782.248 143.32C776.668 142.589 772.003 139.982 768.024 136.185C764.959 133.213 762.856 129.416 761.118 125.483C757.55 117.433 757.138 109.064 758.876 100.648C760.752 91.7294 765.051 83.9999 772.918 78.9688C778.543 75.4014 784.855 74.1207 791.578 74.944C799.079 75.8587 805.482 78.9688 810.559 84.503C814.721 89.0309 817.008 94.6108 818.288 100.648C818.975 103.529 819.066 106.365 818.975 109.704ZM797.478 107.6C797.57 102.249 797.753 96.8519 796.792 91.5464C796.06 87.6131 795.237 83.634 790.709 81.896C788.148 80.9355 783.666 82.9022 782.477 85.3262C780.556 89.2138 780.235 93.3759 780.007 97.4464C779.504 106.548 779.092 115.695 780.007 124.797C780.327 127.907 780.693 131.154 782.522 133.944C784.443 136.917 788.788 138.198 791.853 136.506C794.963 134.768 796.015 131.749 796.472 128.547C797.478 121.641 797.661 114.598 797.478 107.6Z" fill="white"/>
<path d="M744.606 86.7442C744.606 97.9497 744.561 109.155 744.606 120.361C744.606 124.294 744.789 128.227 744.927 132.161C745.064 135.591 746.756 137.375 750.415 137.695C752.244 137.832 752.473 138.747 752.382 140.165C752.29 141.628 751.467 142.086 750.095 142.086C739.804 142.04 729.513 142.086 719.223 142.04C716.707 142.04 716.433 141.628 716.524 139.25C716.57 138.289 716.89 137.786 717.896 137.649C718.719 137.512 719.543 137.238 720.366 137.009C722.195 136.551 723.156 135.454 723.522 133.441C723.979 131.017 724.116 128.593 724.116 126.124C724.116 107.143 724.116 88.1621 724.116 69.1814C724.116 65.1108 724.025 61.086 723.476 57.0611C723.202 54.9572 721.967 53.4479 719.863 52.8534C719.36 52.7162 718.902 52.4417 718.399 52.4417C716.204 52.3045 716.57 50.7037 716.616 49.3316C716.661 47.6394 717.988 47.9138 718.994 47.9138C726.815 47.9138 734.636 47.9138 742.503 47.9138C744.012 47.9138 744.652 48.4169 744.652 50.0177C744.561 62.2751 744.606 74.4868 744.606 86.7442Z" fill="white"/>
<path d="M493.146 89.2138C493.146 101.608 493.146 114.003 493.146 126.398C493.146 129.005 493.512 131.52 493.924 134.036C494.244 136.048 496.073 137.42 498.955 137.649C500.327 137.786 501.013 138.106 501.013 139.661C501.013 141.216 500.281 141.857 498.909 141.948C497.811 142.04 496.759 141.994 495.662 141.994C486.286 141.994 476.91 141.994 467.534 141.948C466.436 141.948 465.201 141.948 465.155 140.393C465.11 139.021 464.927 137.786 467.076 137.557C470.689 137.192 471.97 135.499 472.427 131.84C472.702 129.782 472.702 127.724 472.702 125.666C472.702 104.993 472.702 84.2742 472.702 63.6012C472.702 62.0005 472.656 60.3997 472.427 58.7989C471.741 53.8593 471.101 53.219 466.71 52.1671C465.338 51.8469 464.927 51.1609 464.972 49.926C465.018 48.6911 465.521 47.9593 466.939 47.9593C471.055 47.9593 475.172 47.8678 479.242 47.8221C482.947 47.8221 486.652 47.7763 490.402 47.8221C493.146 47.8678 493.146 47.9136 493.146 50.6578C493.146 63.6012 493.146 76.4075 493.146 89.2138Z" fill="white"/>
<path d="M617.55 143.778C612.93 144.098 609.088 142.406 605.109 141.171C602.319 140.302 601.679 139.707 599.987 142.726C599.346 143.869 598.066 143.778 596.877 143.686C595.779 143.595 595.733 142.68 595.642 141.903C595.459 139.936 595.184 137.924 595.139 135.911C595.093 131.109 594.727 126.352 594.498 121.55C594.453 120.589 594.361 119.4 595.642 119.217C596.968 118.989 598.249 118.851 598.889 120.772C600.398 125.3 602.731 129.462 606.481 132.618C609.18 134.905 612.061 136.917 615.903 136.872C618.693 136.826 620.888 135.683 621.895 133.716C623.267 131.063 622.398 128.273 620.523 125.986C617.321 122.099 612.747 119.858 608.86 116.839C604.286 113.272 599.255 110.299 596.282 104.993C590.611 94.8854 594.59 82.3992 603.371 77.4597C609.866 73.8007 616.726 74.0752 623.495 77.0023C624.273 77.3225 625.05 77.7341 625.874 77.9628C627.52 78.4202 629.03 78.4659 629.899 76.545C630.264 75.7674 630.905 75.1729 631.774 74.8984C633.237 74.4411 634.289 75.2643 634.472 76.7279C635.341 83.0853 635.067 89.4884 635.478 95.8458C635.57 96.9435 635.799 97.9955 634.198 98.3156C632.643 98.6815 631.637 98.2699 631.042 96.8063C629.853 93.9706 628.298 91.3179 626.605 88.7109C624.319 85.1892 620.888 83.4055 617.138 82.0791C615.491 81.4845 613.753 81.5302 612.198 82.5822C608.448 85.1892 608.357 88.5737 611.878 91.5923C616.955 95.9373 622.672 99.4133 627.978 103.484C633.237 107.509 637.857 112.082 638.634 119.126C639.549 127.679 636.988 134.996 629.899 140.165C626.285 142.772 621.986 144.281 617.55 143.778Z" fill="white"/>
<path d="M829.814 123.333C829.814 122.785 829.768 122.19 829.814 121.641C829.905 120.772 829.219 119.492 830.683 119.263C832.146 119.08 833.473 118.988 834.205 121.001C836.4 127.313 840.15 132.481 846.279 135.682C848.612 136.872 850.99 137.146 853.414 136.643C856.57 136.048 858.994 131.658 857.119 128.182C854.878 124.065 850.944 121.87 847.423 119.263C842.117 115.33 836.309 111.945 832.512 106.411C828.213 100.191 827.893 93.5131 830.683 86.5612C834.388 77.3224 843.992 73.3433 853.14 75.1727C855.747 75.7216 858.171 76.6363 860.549 77.734C862.333 78.5572 863.613 78.2828 864.848 76.7278C865.168 76.3162 865.489 75.9045 865.854 75.5386C866.815 74.6239 868.004 74.8068 869.102 75.127C870.062 75.4014 869.788 76.4534 869.833 77.2309C870.154 83.2681 870.474 89.3054 870.748 95.3426C870.794 96.486 871.251 97.8581 869.468 98.224C867.821 98.5442 866.723 98.0411 866.037 96.4403C864.528 92.7814 862.836 89.1682 859.954 86.424C857.027 83.6798 853.734 81.3929 849.298 81.9418C847.057 82.2162 845.73 83.634 844.77 85.4178C843.855 87.0185 844.724 88.4364 845.593 89.717C847.651 92.6441 850.67 94.4736 853.506 96.486C858.171 99.7791 862.973 102.889 867.135 106.777C871.389 110.756 873.858 115.421 873.996 121.458C874.133 129.325 871.068 135.499 865.031 140.302C862.104 142.634 858.491 143.275 854.923 143.686C849.801 144.281 844.953 143.046 840.288 141.079C837.909 140.073 836.995 140.256 835.485 142.268C834.616 143.412 833.519 144.052 832.055 143.732C830.637 143.412 830.637 142.086 830.454 140.988C830.363 140.21 830.363 139.387 830.408 138.61C830.683 133.441 830.088 128.41 829.814 123.333Z" fill="white"/>
<path d="M532.937 105.816C532.937 109.978 532.891 114.14 532.937 118.348C532.983 121.596 533.166 124.843 533.257 128.09C533.303 130.148 533.989 131.978 535.818 132.801C537.693 133.624 539.523 132.801 541.032 131.475C542.221 130.468 543.228 129.279 544.051 127.953C544.554 127.13 545.149 126.398 546.246 127.084C547.298 127.77 548.442 128.41 547.801 130.057C546.566 133.213 544.6 135.82 542.176 138.152C537.693 142.406 532.342 143.503 526.397 142.68C520.451 141.857 516.517 138.289 513.819 133.258C513.087 131.932 512.904 130.331 512.813 128.776C512.264 120.178 512.584 111.533 512.447 102.889C512.355 97.5838 512.721 92.2783 512.218 86.9729C512.081 85.555 511.395 85.0519 510.114 85.1891C508.925 85.3263 507.736 85.4178 506.547 85.2349C505.586 85.0977 504.397 85.2806 504.169 84.0457C503.94 82.7651 504.031 81.393 505.312 80.524C507.736 78.8775 509.931 77.0023 512.172 75.1728C516.197 71.9255 519.536 68.0379 522.692 63.9673C524.933 61.0859 527.037 58.0673 528.729 54.8657C529.141 54.0882 529.735 53.5393 530.696 53.4021C532.159 53.2192 532.937 53.5851 532.891 55.3231C532.8 60.8115 532.845 66.2999 532.845 71.7883C532.845 72.2456 532.845 72.703 532.845 73.1604C532.891 76.6364 532.983 76.7278 536.367 76.7278C539.614 76.7278 542.862 76.7736 546.155 76.7278C547.618 76.7278 548.213 77.3682 548.213 78.786C548.167 80.4325 547.893 82.079 548.03 83.7255C548.121 84.9147 547.207 85.1891 546.155 85.1891C542.633 85.1891 539.066 85.2349 535.544 85.1434C533.897 85.0977 533.12 85.6465 533.028 87.3388C532.708 92.9186 532.937 98.5442 532.845 104.124C532.937 104.673 532.937 105.222 532.937 105.816Z" fill="white"/>
<path d="M579.589 103.118C579.589 110.71 579.589 118.303 579.589 125.941C579.589 128.593 579.954 131.155 580.32 133.762C580.778 136.689 583.202 137.283 585.534 137.649C587.181 137.878 587.547 138.655 587.409 140.027C587.318 141.491 586.449 142.177 585.031 142.131C575.015 142.086 565.044 142.04 555.028 142.04C554.571 142.04 554.113 142.04 553.656 141.994C552.467 141.948 551.552 141.628 551.506 140.119C551.506 138.838 551.552 137.878 553.244 137.558C557.955 136.643 558.961 135.5 559.007 130.057C559.098 117.022 559.098 103.987 559.007 90.952C559.007 89.031 559.007 87.0644 558.458 85.1892C557.864 82.9481 556.674 81.4387 554.159 81.2558C552.878 81.1643 551.46 80.9814 551.46 79.0604C551.46 76.9108 551.689 76.6364 553.884 76.5907C561.705 76.5907 569.526 76.6364 577.393 76.5449C578.994 76.5449 579.589 77.0023 579.543 78.6945C579.543 86.8814 579.589 95.0225 579.589 103.118Z" fill="white"/>
<path d="M569.435 68.6781C562.803 68.7696 558.321 63.6471 558.138 57.3811C558.001 51.2982 563.352 45.764 569.115 45.8555C576.158 45.9927 580.686 50.978 580.869 57.3354C581.006 63.1897 575.884 69.1812 569.435 68.6781Z" fill="white"/>
</svg>
