<svg width="183" height="32" viewBox="0 0 183 32" fill="none" xmlns="http://www.w3.org/2000/svg">
  <path d="M15.958 0.445616C16.2832 0.445616 16.5963 0.566053 16.8252 0.806926L22.0882 6.07C22.3171 6.29883 22.4495 6.59992 22.4495 6.93714C22.4495 7.26232 22.3291 7.57545 22.1003 7.80428L16.8372 13.0674C16.6084 13.2962 16.2952 13.4287 15.9701 13.4287C15.6449 13.4287 15.3317 13.3082 15.1029 13.0794L9.83986 7.81633C9.37015 7.34663 9.37015 6.56379 9.83986 6.09408L15.1029 0.831015C15.3197 0.578098 15.6328 0.445616 15.958 0.445616ZM15.958 0C15.5365 0 15.1029 0.156567 14.7777 0.481746L9.51468 5.74482C8.86433 6.39518 8.86433 7.45502 9.51468 8.10537L14.7777 13.3684C15.1029 13.6936 15.5245 13.8502 15.958 13.8502C16.3916 13.8502 16.8131 13.6936 17.1383 13.3684L22.4014 8.10537C23.0517 7.45502 23.0517 6.39518 22.4014 5.74482L17.1383 0.481746C16.8131 0.168611 16.3916 0 15.958 0Z" fill="white" />
  <path d="M7.61158 9.17731H6.09407L0 15.2714V16.8009L6.09407 22.895H7.61158L13.7177 16.8009V15.2714L7.61158 9.17731Z" fill="white" />
  <path d="M16.7287 18.2823H15.1991L9.10504 24.3763V25.9059L15.1991 32H16.7287L22.8228 25.9059V24.3763L16.7287 18.2823Z" fill="white" />
  <path d="M25.8216 9.17731H24.3041L18.21 15.2714V16.8009L24.3041 22.895H25.8216L31.9277 16.8009V15.2714L25.8216 9.17731Z" fill="white" />
  <path d="M7.61158 9.17731H6.09407L0 15.2714V16.8009L6.09407 22.895H7.61158L13.7177 16.8009V15.2714L7.61158 9.17731Z" fill="white" />
  <path d="M16.7287 18.2823H15.1991L9.10504 24.3764V25.9059L15.1991 32H16.7287L22.8228 25.9059V24.3764L16.7287 18.2823Z" fill="white" />
  <path d="M25.8216 9.17731H24.3041L18.21 15.2714V16.8009L24.3041 22.895H25.8216L31.9277 16.8009V15.2714L25.8216 9.17731Z" fill="white" />
  <path d="M42.3836 4.1611C45.9245 4.1611 47.731 6.28078 47.731 9.97818V10.7008H44.2986V9.74935C44.2986 8.09937 43.6361 7.46106 42.48 7.46106C41.3238 7.46106 40.6614 8.08733 40.6614 9.74935C40.6614 14.5066 47.7671 15.3978 47.7671 22.0098C47.7671 25.7072 45.9124 27.8269 42.3475 27.8269C38.7826 27.8269 36.9279 25.7192 36.9279 22.0098V20.5886H40.3603V22.2386C40.3603 23.8886 41.0829 24.4787 42.2391 24.4787C43.3953 24.4787 44.1179 23.8886 44.1179 22.2386C44.1179 17.4814 37.0122 16.5901 37.0122 9.97818C37.0242 6.28078 38.8428 4.1611 42.3836 4.1611Z" fill="white" />
  <path d="M54.6086 9.97818C54.6086 6.28078 56.5596 4.1611 60.1245 4.1611C63.6895 4.1611 65.6405 6.28078 65.6405 9.97818V22.0098C65.6405 25.7072 63.6895 27.8269 60.1245 27.8269C56.5596 27.8269 54.6086 25.7192 54.6086 22.0098V9.97818ZM58.2337 22.2386C58.2337 23.8886 58.9563 24.5149 60.1125 24.5149C61.2687 24.5149 62.0034 23.8886 62.0034 22.2386V9.74935C62.0034 8.09937 61.2807 7.46106 60.1125 7.46106C58.9563 7.46106 58.2337 8.08733 58.2337 9.74935V22.2386Z" fill="white" />
  <path d="M71.5296 4.16107H75.1668V24.4426H81.1525V27.8148H71.5416V4.16107H71.5296Z" fill="white" />
  <path d="M98.7597 27.8269H95.0864L94.4602 23.5273H90.004L89.3778 27.8269H86.0417L89.7391 4.17316H95.0624L98.7597 27.8269ZM90.4737 20.3237H93.9784L92.2321 8.36435L90.4737 20.3237Z" fill="white" />
  <path d="M112.129 27.8269C111.936 27.2127 111.804 26.8514 111.804 24.9244V21.2029C111.804 19.011 111.081 18.192 109.431 18.192H108.178V27.8269H104.541V4.17319H110.033C113.803 4.17319 115.417 5.96769 115.417 9.61692V11.4716C115.417 13.9045 114.658 15.4942 113.032 16.265C114.851 17.0479 115.441 18.8303 115.441 21.2993V24.9485C115.441 26.0926 115.477 26.9477 115.838 27.8149H112.129V27.8269ZM108.154 7.54541V14.8077H109.576C110.936 14.8077 111.755 14.1935 111.755 12.3027V9.96618C111.755 8.28007 111.189 7.53337 109.901 7.53337H108.154V7.54541Z" fill="white" />
  <path d="M126.858 23.4671L129.628 4.17319H132.964L129.399 27.8269H123.98L120.427 4.17319H124.1L126.858 23.4671Z" fill="white" />
  <path d="M138.95 9.97818C138.95 6.28078 140.901 4.1611 144.466 4.1611C148.031 4.1611 149.982 6.28078 149.982 9.97818V22.0098C149.982 25.7072 148.031 27.8269 144.466 27.8269C140.901 27.8269 138.95 25.7192 138.95 22.0098V9.97818ZM142.587 22.2386C142.587 23.8886 143.31 24.5149 144.478 24.5149C145.634 24.5149 146.357 23.8886 146.357 22.2386V9.74935C146.357 8.09937 145.634 7.46106 144.478 7.46106C143.322 7.46106 142.587 8.08733 142.587 9.74935V22.2386Z" fill="white" />
  <path d="M157.437 4.17316H161.074V24.4547H167.06V27.8389H157.449V4.17316H157.437Z" fill="white" />
  <path d="M170.829 4.17319H182.066V7.54541H178.26V27.8269H174.623V7.54541H170.817V4.17319H170.829Z" fill="white" />
</svg>