<svg width="218" height="52" viewBox="0 0 218 52" fill="none" xmlns="http://www.w3.org/2000/svg">
<path d="M5.78082 40.9225C5.59144 40.5438 5.23372 40.3123 4.94965 40.0177C4.22369 39.2391 3.41356 38.5447 2.74021 37.7241C1.00422 35.5988 -0.0899776 33.2105 0.0467973 30.4014C0.173051 27.9605 1.23569 25.993 3.21366 24.5727C3.96066 24.0361 4.80236 23.6152 5.7177 23.3838C5.81239 23.3627 5.90708 23.3417 5.9176 23.2365C5.92812 23.1313 5.84395 23.0787 5.78082 23.0155C4.6761 22.0581 3.67659 21.006 2.70865 19.9118C1.82487 18.9018 1.10943 17.776 0.657024 16.5345C0.173051 15.2194 -0.047893 13.8411 0.0573184 12.3997C0.141488 11.2634 0.43608 10.2008 0.930574 9.20127C1.41455 8.2228 2.15103 7.43371 3.04532 6.81297C3.73972 6.31847 4.49724 5.90815 5.29685 5.61356C5.99125 5.36105 6.7172 5.15063 7.46421 5.07698C12.8826 4.56144 18.3115 4.97177 23.7299 4.82447C24.9819 4.79291 26.2445 4.81395 27.4965 4.60353C28.3697 4.45623 29.3061 3.54089 29.4534 2.62555C29.5481 2.05741 29.6428 1.48927 29.6112 0.900082C29.5902 0.5108 29.7585 0.310898 30.1688 0.331941C30.4003 0.342462 30.6423 0.363504 30.8738 0.331941C31.3051 0.268814 31.4103 0.5108 31.4629 0.868519C31.5682 1.605 31.5366 2.352 31.7786 3.07796C32.1047 4.06695 32.7465 4.593 33.7671 4.77186C34.8087 4.95072 35.8608 4.99281 36.9024 4.99281C41.3633 5.00333 45.8243 5.02437 50.2748 4.96124C51.7582 4.9402 53.2628 4.99281 54.7462 4.66665C55.7457 4.45623 56.3244 3.51985 56.0719 2.352C55.9667 1.88907 55.8615 1.43666 55.7457 0.97373C55.7037 0.815913 55.6826 0.637054 55.8299 0.542363C56.1982 0.310898 56.598 0.132039 57.0083 0.0163062C57.2292 -0.0468207 57.3765 0.079433 57.4607 0.289856C58.113 1.87855 58.7232 3.47776 59.4176 5.05593C59.9332 6.2343 60.354 7.44424 60.859 8.6226C61.1536 9.317 61.0168 10.0219 61.0484 10.7163C61.0589 10.9162 60.8695 10.9267 60.7012 10.9478C59.6701 11.053 58.6285 11.0004 57.5869 11.0004C56.9346 11.0004 56.2823 11.0951 55.63 11.0109C55.5458 11.0004 55.4722 11.0214 55.4301 11.1161C56.114 11.9052 56.7979 12.6838 57.5449 13.4202C58.86 14.7038 59.9016 16.1873 60.5118 17.9023C61.1852 19.8066 61.2904 21.753 60.6591 23.731C60.0699 25.5511 58.9021 26.8768 57.3344 27.8658C56.8189 28.1919 56.2297 28.4655 55.609 28.6023C55.4932 28.6338 55.367 28.6443 55.3249 28.7811C55.2828 28.9284 55.4091 28.981 55.4932 29.0652C57.3555 30.8959 59.2808 32.6845 60.3119 35.1569C60.8801 36.5142 61.1221 37.9345 61.0694 39.418C61.0168 40.7752 60.6907 42.0272 59.9858 43.1951C59.102 44.6575 57.7868 45.615 56.2508 46.2673C54.8199 46.867 53.3154 47.109 51.7582 47.1616C46.3188 47.3299 40.8688 47.1826 35.4294 47.2352C34.735 47.2457 34.0722 47.393 33.4094 47.5193C32.6097 47.6771 32.2626 48.3189 32.01 49.0343C31.7575 49.7603 31.5787 50.4862 31.5155 51.2543C31.4945 51.5278 31.3262 51.6751 31.0631 51.7172C31.0421 51.7172 31.0105 51.7172 30.9895 51.7277C29.6954 51.8435 29.5797 51.7488 29.6007 50.4652C29.6112 49.7498 29.5165 49.0764 29.1693 48.4557C28.7801 47.7402 28.1172 47.4141 27.3807 47.2563C26.2339 47.0037 25.0556 47.0564 23.8877 47.0564C20.4157 47.0669 16.9438 47.0458 13.4718 47.0669C11.3676 47.0774 9.26332 47.0143 7.16961 47.2457C6.65408 47.2983 6.15958 47.4772 5.7177 47.7087C5.0233 48.0559 5.01278 48.7503 5.04434 49.4236C5.07591 50.0233 5.3705 50.5494 5.43362 51.1491C5.44415 51.2964 5.45467 51.4121 5.32841 51.4963C4.96017 51.7277 4.54985 51.8645 4.13952 51.9802C3.81337 52.0749 3.66607 51.8119 3.57138 51.5594C3.07689 50.3495 2.60344 49.129 2.10894 47.9086C1.47767 46.3725 0.835883 44.8364 0.194093 43.3003C-0.0794565 42.6585 -0.00580845 41.9852 0.0678396 41.3223C0.099403 41.0277 0.404516 41.0488 0.646503 41.0488C2.19311 41.0488 3.75024 41.0488 5.29685 41.0488C5.46519 41.0488 5.63353 41.1014 5.78082 40.9225ZM17.6276 28.8758C15.6602 28.9389 13.0299 28.7811 10.3996 28.9389C9.34749 29.0021 8.31642 29.1073 7.32743 29.5176C5.50727 30.2856 4.70767 31.5587 4.50776 33.3894C4.37099 34.5678 4.72871 35.6935 5.26529 36.7246C5.88603 37.9135 6.56991 39.0813 7.50629 40.0703C8.00078 40.5858 8.44267 41.1645 9.28436 41.0172C9.49479 40.9857 9.72625 41.0488 9.9472 41.0488C13.6822 41.0488 17.4172 41.0488 21.1522 41.0488C22.7199 41.0488 24.277 41.0803 25.8446 40.9751C26.6337 40.9225 27.4544 40.9541 28.1909 40.5858C28.8853 40.2386 29.3271 39.7126 29.4639 38.913C29.5902 38.1975 29.6007 37.4821 29.6112 36.7561C29.6217 36.4616 29.6849 36.188 30.0531 36.1775C30.3793 36.167 30.7159 36.167 31.0421 36.188C31.3788 36.209 31.5261 36.409 31.4945 36.7456C31.4314 37.6084 31.6418 38.4395 31.8101 39.2707C31.8838 39.6495 32.0942 40.0282 32.3678 40.3333C32.9149 40.9225 33.6408 41.0909 34.3983 41.1224C35.4189 41.1645 36.45 41.2066 37.4705 41.1961C42.3313 41.1329 47.2026 41.3749 52.0634 41.0383C52.8524 40.9856 53.652 40.8278 54.3464 40.4701C55.7773 39.7336 56.4612 38.5027 56.5348 36.8719C56.619 34.8518 55.8089 33.1895 54.7147 31.6008C54.2202 30.8748 53.5468 30.2856 53.0208 29.5912C52.7262 29.202 52.3895 29.0652 51.9476 29.0968C50.5167 29.2125 49.0859 29.1283 47.655 29.1494C43.1625 29.2125 38.6699 29.0441 34.1669 29.244C33.3041 29.2861 32.6097 29.6439 32.252 30.4014C31.8627 31.222 31.5682 32.0953 31.5997 33.0527C31.6208 33.7787 31.3683 33.9786 30.6633 33.9891C30.5055 33.9891 30.3477 33.9891 30.1899 33.9891C29.8006 33.9996 29.5902 33.8628 29.6112 33.442C29.6533 32.5477 29.6112 31.6534 29.3692 30.7907C29.1693 30.0857 28.7169 29.5702 28.0436 29.244C27.1598 28.8127 26.1918 28.9074 25.2555 28.8863C22.9408 28.8337 20.6156 28.8758 17.6276 28.8758ZM18.3326 10.8741C15.2709 10.9162 12.2092 10.7374 9.14759 10.9688C8.26381 11.0319 7.40108 11.2318 6.62251 11.6632C5.9176 12.0525 5.38102 12.6206 5.03382 13.4308C4.70767 14.1988 4.58141 14.9669 4.59193 15.7665C4.61298 17.0816 5.10747 18.2915 5.75978 19.4068C6.47522 20.6272 7.39056 21.7109 8.39007 22.7104C8.53736 22.8682 8.7057 22.9208 8.91612 22.9208C15.0079 22.8262 21.1101 23.1102 27.2019 22.763C27.9068 22.7209 28.5381 22.4684 28.9484 21.8582C29.4744 21.0691 29.6007 20.1643 29.6112 19.2279C29.6112 17.9969 29.6849 17.9443 30.9264 18.0495C31.3472 18.0811 31.4524 18.2705 31.484 18.6493C31.5366 19.3437 31.6102 20.038 31.7049 20.7219C31.9469 22.4579 32.999 22.9314 33.9144 23.0576C34.4825 23.1418 35.0717 23.1523 35.6398 23.1523C40.3112 23.1628 44.9721 23.1628 49.6435 23.1523C50.4641 23.1523 51.2953 23.1207 52.116 23.005C53.147 22.8472 54.1465 22.6052 54.9882 21.9424C56.8189 20.522 56.9346 18.1127 56.2297 16.1663C55.9456 15.3772 55.5038 14.6828 55.0829 13.9779C54.4832 12.9784 53.7783 12.0525 52.8735 11.295C52.6736 11.1266 52.4526 11.0425 52.1896 11.0425C46.3293 11.0951 40.469 10.9267 34.5982 11.1477C33.8197 11.1792 32.9885 11.2529 32.4625 11.9683C32.0416 12.547 31.7891 13.2098 31.6839 13.9147C31.6102 14.3987 31.5892 14.8827 31.5261 15.3667C31.484 15.7349 31.242 15.9243 30.8738 15.9243C30.5897 15.9243 30.2951 15.8822 30.011 15.8822C29.727 15.8822 29.6112 15.7454 29.6007 15.4719C29.6007 14.9563 29.6112 14.4408 29.5797 13.9358C29.5376 13.2309 29.3587 12.547 28.9589 11.9788C28.4223 11.2108 27.5912 10.9267 26.6969 10.9162C23.9298 10.8636 21.1312 10.8741 18.3326 10.8741Z" fill="white"/>
<path d="M85.5099 18.5439C85.8677 18.2493 86.2254 17.9442 86.5936 17.6601C88.0981 16.5238 89.7815 16.3555 91.507 16.9657C92.2645 17.2288 92.8853 17.8179 93.2745 18.586C93.5376 19.1015 93.5481 19.091 93.9479 18.7122C94.6633 18.0284 95.3998 17.3761 96.3362 17.0183C97.8197 16.4502 99.8608 16.3871 101.176 17.6707C101.66 18.1441 102.028 18.7017 102.186 19.3751C102.407 20.2694 102.481 21.1847 102.491 22.1106C102.502 24.1517 102.491 26.1823 102.502 28.2234C102.502 28.8652 102.533 29.5069 102.586 30.1487C102.617 30.6117 102.922 30.8431 103.354 30.9799C103.659 31.0746 104.08 31.0325 104.09 31.5691C104.101 31.9794 103.89 32.0951 103.575 32.0951C101.26 32.1057 98.9454 32.0951 96.6308 32.0951C96.3362 32.0951 96.1784 31.9478 96.1573 31.6848C96.1363 31.4323 96.1258 31.1903 96.494 31.0851C97.4409 30.8221 97.6513 30.538 97.7145 29.549C97.8828 27.045 97.7776 24.5304 97.7671 22.0159C97.7671 21.332 97.7566 20.6271 97.5356 19.9537C97.3041 19.2278 96.5256 18.9016 95.8312 19.2383C95.1052 19.5855 94.5897 20.1431 94.1162 20.7639C93.99 20.9322 93.9584 21.1532 93.9584 21.3636C93.9584 24.0359 93.9479 26.6978 93.99 29.3702C94.0005 29.7805 93.9479 30.2329 94.232 30.6222C94.495 30.9904 94.9053 31.0115 95.2736 31.0956C95.6628 31.1903 95.5155 31.4744 95.5682 31.6848C95.6208 31.9163 95.484 32.032 95.2736 32.0741C95.1473 32.0951 95.0105 32.1057 94.8843 32.1057C92.759 32.1057 90.6232 32.1057 88.4979 32.1057C88.3822 32.1057 88.256 32.1057 88.1402 32.0951C87.9088 32.0741 87.6773 32.0531 87.6878 31.7269C87.6983 31.4428 87.6142 31.1693 88.0455 31.0746C88.9293 30.8642 89.0871 30.6011 89.1292 29.6963C89.2555 27.0555 89.1713 24.4147 89.1713 21.7739C89.1713 21.1847 89.2029 20.564 89.003 19.9748C88.7189 19.1752 87.8351 18.8595 87.1091 19.2804C86.5726 19.5855 86.1622 20.0169 85.773 20.4798C85.5099 20.7954 85.3837 21.1532 85.3837 21.5635C85.3837 24.0991 85.3732 26.6347 85.3942 29.1808C85.3942 29.5806 85.4679 29.9909 85.5836 30.3802C85.7204 30.8537 86.1517 31.043 86.5831 31.0956C87.0355 31.1482 86.9619 31.4323 86.9619 31.7164C86.9619 32.0636 86.7199 32.1162 86.4463 32.1162C84.7735 32.1162 83.1111 32.1162 81.4383 32.1162C80.8385 32.1162 80.2283 32.1057 79.6286 32.1162C79.334 32.1162 79.1026 32.0425 79.0605 31.7059C79.0289 31.3797 79.1341 31.1693 79.4918 31.0746C80.4177 30.8431 80.586 30.6327 80.5966 29.6858C80.6071 26.2664 80.5966 22.8471 80.5966 19.4277C80.5966 18.7122 80.2914 18.344 79.6181 18.1546C79.2919 18.0705 79.0289 17.9442 79.071 17.5128C79.1026 17.2182 79.2183 17.0709 79.5444 17.0709C81.3436 17.0815 83.1427 17.0815 84.9523 17.0709C85.2785 17.0709 85.4047 17.1867 85.3942 17.5128C85.3732 17.8495 85.3942 18.1862 85.3942 18.5229C85.4258 18.5123 85.4678 18.5334 85.5099 18.5439Z" fill="white"/>
<path d="M115.422 30.5697C114.832 31.0642 114.348 31.5587 113.738 31.8743C112.013 32.7791 109.624 32.8738 108.162 30.9695C107.405 29.991 107.299 28.8758 107.278 27.7395C107.236 25.488 107.278 23.247 107.257 20.9955C107.247 20.3431 107.236 19.6803 107.11 19.0385C107.015 18.5756 106.773 18.26 106.279 18.1653C106.047 18.1232 105.805 18.0601 105.7 17.8075C105.521 17.3867 105.742 17.0605 106.205 17.0605C107.931 17.0605 109.646 17.0605 111.371 17.0605C111.95 17.0605 111.981 17.0921 111.981 17.6603C111.981 20.8376 111.981 24.0255 111.992 27.2029C111.992 27.7816 112.023 28.3603 112.076 28.9284C112.139 29.6859 112.854 30.1278 113.601 29.8963C114.496 29.6123 114.969 28.8653 115.453 28.1498C115.506 28.0657 115.485 27.9184 115.485 27.8026C115.485 25.1724 115.485 22.5421 115.485 19.9118C115.485 19.4699 115.359 19.0596 115.222 18.6492C115.138 18.3967 114.906 18.281 114.654 18.2074C114.001 18.0285 113.854 17.8496 113.907 17.3972C113.938 17.1763 114.033 17.0605 114.264 17.0605C116.127 17.0605 117.999 17.0605 119.862 17.0605C120.072 17.0605 120.167 17.1658 120.219 17.3551C120.293 17.6392 120.261 17.9338 120.261 18.2179C120.261 21.9634 120.261 25.7089 120.272 29.465C120.272 30.6223 120.609 30.9274 121.45 31.0642C121.787 31.1168 121.84 31.3483 121.84 31.6429C121.84 31.969 121.629 32.0427 121.377 32.0742C121.156 32.0953 120.935 32.0953 120.703 32.0953C119.22 32.0953 117.736 32.1058 116.242 32.0953C115.516 32.0953 115.464 32.0427 115.464 31.3167C115.464 31.0958 115.443 30.8748 115.422 30.5697Z" fill="white"/>
<path d="M179.443 23.9413C179.443 25.6457 179.317 26.8662 178.885 28.0235C178.264 29.6648 177.212 30.9379 175.666 31.8006C174.414 32.5055 173.056 32.5476 171.689 32.474C170.447 32.4003 169.29 32.0636 168.301 31.2745C167.617 30.7274 167.049 30.0857 166.617 29.3281C165.776 27.8762 165.344 26.3086 165.365 24.6357C165.387 22.5736 165.955 20.6692 167.249 19.0385C168.154 17.8916 169.311 17.0815 170.752 16.7869C173.004 16.324 175.066 16.7764 176.844 18.2599C178.759 19.8591 179.348 22.037 179.443 23.9413ZM170.353 25.1197C170.353 25.6352 170.342 26.1402 170.353 26.6558C170.363 27.1818 170.374 27.7079 170.447 28.2234C170.552 28.9073 170.594 29.6122 171.005 30.2119C171.699 31.2535 173.141 31.2745 173.751 30.2435C174.182 29.5175 174.287 28.7179 174.33 27.9078C174.445 25.7194 174.603 23.531 174.403 21.3426C174.319 20.4272 174.235 19.5119 173.646 18.7439C173.13 18.081 172.067 18.0179 171.478 18.4914C170.763 19.0805 170.626 19.9012 170.531 20.7008C170.384 22.1738 170.331 23.6467 170.353 25.1197Z" fill="white"/>
<path d="M204.683 24.6568C204.799 25.7194 204.546 26.8347 204.199 27.9289C203.905 28.8653 203.357 29.6754 202.705 30.4014C202 31.1799 201.18 31.8007 200.17 32.1373C198.886 32.5687 197.571 32.5687 196.235 32.3898C194.951 32.2215 193.878 31.6218 192.963 30.7486C192.258 30.0647 191.774 29.1914 191.374 28.2866C190.553 26.4349 190.459 24.5095 190.858 22.5736C191.29 20.522 192.279 18.7439 194.088 17.5866C195.382 16.7659 196.834 16.4714 198.381 16.6607C200.106 16.8712 201.579 17.5866 202.747 18.8597C203.705 19.9013 204.231 21.1848 204.525 22.5736C204.683 23.2365 204.704 23.8888 204.683 24.6568ZM199.738 24.1728C199.759 22.9419 199.801 21.7004 199.58 20.4799C199.412 19.5751 199.223 18.6598 198.181 18.26C197.592 18.039 196.561 18.4914 196.287 19.049C195.845 19.9433 195.772 20.9008 195.719 21.8371C195.603 23.9308 195.509 26.0351 195.719 28.1288C195.793 28.8442 195.877 29.5912 196.298 30.233C196.74 30.9169 197.739 31.2115 198.444 30.8222C199.16 30.4224 199.402 29.728 199.507 28.9915C199.738 27.4028 199.78 25.7826 199.738 24.1728Z" fill="white"/>
<path d="M187.576 19.3751C187.576 21.9528 187.565 24.5304 187.576 27.1081C187.576 28.0129 187.618 28.9178 187.649 29.8226C187.681 30.6117 188.07 31.022 188.912 31.0956C189.333 31.1272 189.385 31.3376 189.364 31.6638C189.343 32.0005 189.154 32.1057 188.838 32.1057C186.471 32.0951 184.104 32.1057 181.736 32.0951C181.158 32.0951 181.095 32.0005 181.116 31.4534C181.126 31.2324 181.2 31.1167 181.431 31.0851C181.621 31.0536 181.81 30.9904 181.999 30.9378C182.42 30.8326 182.641 30.5801 182.725 30.1172C182.831 29.5596 182.862 29.0019 182.862 28.4338C182.862 24.0675 182.862 19.7012 182.862 15.335C182.862 14.3986 182.841 13.4727 182.715 12.5469C182.652 12.0629 182.368 11.7157 181.884 11.5789C181.768 11.5473 181.663 11.4842 181.547 11.4842C181.042 11.4527 181.126 11.0844 181.137 10.7688C181.147 10.3795 181.452 10.4426 181.684 10.4426C183.483 10.4426 185.282 10.4426 187.092 10.4426C187.439 10.4426 187.586 10.5584 187.586 10.9266C187.565 13.7463 187.576 16.5554 187.576 19.3751Z" fill="white"/>
<path d="M129.73 19.9433C129.73 22.7945 129.73 25.6458 129.73 28.497C129.73 29.0967 129.814 29.6754 129.909 30.254C129.983 30.717 130.404 31.0326 131.067 31.0852C131.382 31.1168 131.54 31.1904 131.54 31.5481C131.54 31.9058 131.372 32.0531 131.056 32.0742C130.803 32.0952 130.562 32.0847 130.309 32.0847C128.152 32.0847 125.995 32.0847 123.838 32.0742C123.586 32.0742 123.302 32.0742 123.291 31.7165C123.281 31.4008 123.239 31.1168 123.733 31.0642C124.564 30.98 124.859 30.5907 124.964 29.749C125.027 29.2756 125.027 28.8021 125.027 28.3287C125.027 23.5731 125.027 18.807 125.027 14.0515C125.027 13.6832 125.017 13.315 124.964 12.9467C124.806 11.8105 124.659 11.6632 123.649 11.4212C123.333 11.3475 123.239 11.1897 123.249 10.9056C123.26 10.6216 123.376 10.4532 123.702 10.4532C124.649 10.4532 125.596 10.4322 126.532 10.4217C127.384 10.4217 128.236 10.4111 129.099 10.4217C129.73 10.4322 129.73 10.4427 129.73 11.074C129.73 14.0515 129.73 16.9974 129.73 19.9433Z" fill="white"/>
<path d="M158.348 32.4949C157.285 32.5686 156.402 32.1793 155.486 31.8952C154.844 31.6953 154.697 31.5585 154.308 32.2529C154.161 32.516 153.866 32.4949 153.592 32.4739C153.34 32.4528 153.329 32.2424 153.308 32.0636C153.266 31.6112 153.203 31.1482 153.193 30.6853C153.182 29.5806 153.098 28.4864 153.045 27.3817C153.035 27.1607 153.014 26.8872 153.308 26.8451C153.613 26.7925 153.908 26.7609 154.055 27.2028C154.403 28.2444 154.939 29.2018 155.802 29.9278C156.423 30.4538 157.085 30.9168 157.969 30.9062C158.611 30.8957 159.116 30.6327 159.347 30.1803C159.663 29.5701 159.463 28.9283 159.032 28.4022C158.295 27.5079 157.243 26.9924 156.349 26.298C155.297 25.4773 154.14 24.7934 153.456 23.573C152.151 21.2478 153.066 18.3755 155.086 17.2393C156.58 16.3976 158.159 16.4607 159.716 17.1341C159.895 17.2077 160.073 17.3024 160.263 17.355C160.642 17.4602 160.989 17.4707 161.189 17.0288C161.273 16.85 161.42 16.7132 161.62 16.6501C161.957 16.5449 162.199 16.7343 162.241 17.0709C162.441 18.5334 162.378 20.0063 162.472 21.4688C162.493 21.7213 162.546 21.9633 162.178 22.0369C161.82 22.1211 161.588 22.0264 161.452 21.6897C161.178 21.0374 160.82 20.4272 160.431 19.8275C159.905 19.0173 159.116 18.607 158.253 18.3019C157.875 18.1651 157.475 18.1756 157.117 18.4176C156.254 19.0173 156.233 19.7959 157.043 20.4903C158.211 21.4898 159.526 22.2894 160.747 23.2258C161.957 24.1517 163.019 25.2038 163.198 26.824C163.409 28.7915 162.819 30.4749 161.189 31.6638C160.358 32.2635 159.369 32.6107 158.348 32.4949Z" fill="white"/>
<path d="M207.177 27.7921C207.177 27.6658 207.166 27.5291 207.177 27.4028C207.198 27.2029 207.04 26.9083 207.377 26.8557C207.713 26.8136 208.018 26.7926 208.187 27.2555C208.692 28.7074 209.555 29.8963 210.964 30.6328C211.501 30.9063 212.048 30.9695 212.606 30.8537C213.332 30.717 213.889 29.7069 213.458 28.9073C212.942 27.9604 212.038 27.4554 211.227 26.8557C210.007 25.9509 208.671 25.1723 207.798 23.8993C206.809 22.4684 206.735 20.9323 207.377 19.3331C208.229 17.2078 210.438 16.2925 212.543 16.7133C213.142 16.8396 213.7 17.05 214.247 17.3025C214.657 17.4919 214.952 17.4288 215.236 17.071C215.31 16.9763 215.383 16.8817 215.467 16.7975C215.688 16.5871 215.962 16.6291 216.214 16.7028C216.435 16.7659 216.372 17.0079 216.383 17.1868C216.456 18.5756 216.53 19.9643 216.593 21.3531C216.604 21.6162 216.709 21.9318 216.299 22.016C215.92 22.0896 215.667 21.9739 215.51 21.6056C215.162 20.764 214.773 19.9328 214.11 19.3015C213.437 18.6702 212.679 18.1442 211.659 18.2704C211.143 18.3336 210.838 18.6597 210.617 19.0701C210.407 19.4383 210.607 19.7644 210.807 20.059C211.28 20.7324 211.974 21.1532 212.627 21.6162C213.7 22.3737 214.805 23.0891 215.762 23.9834C216.741 24.8988 217.309 25.9719 217.34 27.3607C217.372 29.1704 216.667 30.5907 215.278 31.6954C214.605 32.232 213.774 32.3793 212.953 32.474C211.775 32.6108 210.659 32.3267 209.586 31.8743C209.039 31.6428 208.829 31.6849 208.481 32.1478C208.282 32.4109 208.029 32.5582 207.692 32.4845C207.366 32.4109 207.366 32.1058 207.324 31.8532C207.303 31.6744 207.303 31.485 207.314 31.3061C207.377 30.1173 207.24 28.9599 207.177 27.7921Z" fill="white"/>
<path d="M138.884 23.7624C138.884 24.7199 138.874 25.6773 138.884 26.6452C138.895 27.3922 138.937 28.1392 138.958 28.8862C138.968 29.3597 139.126 29.7805 139.547 29.9699C139.978 30.1593 140.399 29.9699 140.746 29.6648C141.02 29.4333 141.251 29.1598 141.441 28.8547C141.556 28.6653 141.693 28.497 141.946 28.6548C142.188 28.8126 142.451 28.9599 142.303 29.3387C142.019 30.0646 141.567 30.6643 141.009 31.2009C139.978 32.1794 138.747 32.4319 137.38 32.2425C136.012 32.0531 135.107 31.2325 134.486 30.0751C134.318 29.77 134.276 29.4018 134.255 29.0441C134.128 27.0661 134.202 25.0776 134.171 23.0891C134.15 21.8686 134.234 20.6482 134.118 19.4277C134.086 19.1016 133.929 18.9858 133.634 19.0174C133.36 19.049 133.087 19.07 132.813 19.0279C132.592 18.9964 132.319 19.0385 132.266 18.7544C132.214 18.4598 132.235 18.1442 132.529 17.9443C133.087 17.5655 133.592 17.1341 134.107 16.7133C135.033 15.9663 135.801 15.072 136.527 14.1356C137.043 13.4728 137.527 12.7784 137.916 12.0419C138.011 11.863 138.148 11.7368 138.369 11.7052C138.705 11.6631 138.884 11.7473 138.874 12.1471C138.852 13.4096 138.863 14.6722 138.863 15.9347C138.863 16.0399 138.863 16.1451 138.863 16.2503C138.874 17.05 138.895 17.071 139.673 17.071C140.42 17.071 141.167 17.0815 141.925 17.071C142.261 17.071 142.398 17.2183 142.398 17.5444C142.388 17.9232 142.324 18.302 142.356 18.6807C142.377 18.9543 142.167 19.0174 141.925 19.0174C141.115 19.0174 140.294 19.0279 139.484 19.0069C139.105 18.9964 138.926 19.1226 138.905 19.5119C138.831 20.7955 138.884 22.0896 138.863 23.3732C138.884 23.4994 138.884 23.6257 138.884 23.7624Z" fill="white"/>
<path d="M149.616 23.1418C149.616 24.8883 149.616 26.6349 149.616 28.3919C149.616 29.0021 149.7 29.5913 149.784 30.191C149.889 30.8644 150.447 31.0011 150.983 31.0853C151.362 31.1379 151.446 31.3168 151.415 31.6324C151.394 31.9691 151.194 32.1269 150.868 32.1164C148.563 32.1059 146.27 32.0953 143.966 32.0953C143.86 32.0953 143.755 32.0953 143.65 32.0848C143.376 32.0743 143.166 32.0006 143.156 31.6534C143.156 31.3589 143.166 31.1379 143.555 31.0643C144.639 30.8538 144.87 30.5908 144.881 29.3388C144.902 26.3403 144.902 23.3417 144.881 20.3432C144.881 19.9013 144.881 19.4489 144.755 19.0176C144.618 18.502 144.344 18.1548 143.766 18.1127C143.471 18.0917 143.145 18.0496 143.145 17.6077C143.145 17.1132 143.198 17.0501 143.703 17.0396C145.502 17.0396 147.301 17.0501 149.111 17.0291C149.479 17.0291 149.616 17.1343 149.605 17.5235C149.605 19.4068 149.616 21.2796 149.616 23.1418Z" fill="white"/>
<path d="M147.28 15.2194C145.754 15.2405 144.723 14.0621 144.681 12.6207C144.65 11.2214 145.881 9.94833 147.206 9.96937C148.827 10.0009 149.868 11.1477 149.91 12.6102C149.942 13.9569 148.763 15.3352 147.28 15.2194Z" fill="white"/>
<path d="M121.009 41.2275C121.219 40.4595 121.45 39.7019 121.619 38.9339C121.713 38.513 121.882 38.3026 122.324 38.3657C122.513 38.3973 122.723 38.3973 122.913 38.3657C123.313 38.3026 123.428 38.4394 123.428 38.8497C123.407 40.2385 123.407 41.6378 123.428 43.0266C123.439 43.5001 123.176 43.479 122.85 43.479C122.513 43.4895 122.303 43.4369 122.324 43.0161C122.355 42.3848 122.334 41.7536 122.334 41.1328C122.334 40.9855 122.376 40.8277 122.229 40.6173C122.04 41.4064 121.829 42.1113 121.692 42.8267C121.566 43.4475 121.566 43.4895 120.84 43.479C120.377 43.4685 120.304 43.3422 120.198 42.7741C120.062 42.0587 119.862 41.3432 119.672 40.6173C119.494 40.7435 119.557 40.9013 119.557 41.0276C119.546 41.722 119.536 42.4164 119.557 43.1108C119.567 43.5737 119.241 43.4685 118.989 43.479C118.725 43.4895 118.462 43.5211 118.473 43.1003C118.494 41.6589 118.483 40.2069 118.473 38.7655C118.473 38.4815 118.589 38.3447 118.852 38.3447C119.083 38.3447 119.325 38.3973 119.557 38.3552C120.093 38.2605 120.23 38.5867 120.325 39.0075C120.504 39.7545 120.703 40.491 120.893 41.2275C120.924 41.2275 120.966 41.2275 121.009 41.2275Z" fill="white"/>
<path d="M191.121 40.67C190.911 41.2276 191.058 41.7747 191.027 42.3218C191.016 42.5007 191.027 42.6901 191.027 42.8689C191.016 43.4581 191.006 43.4581 190.438 43.4686C190.09 43.4792 189.954 43.3845 189.954 43.0057C189.975 41.6485 189.964 40.3018 189.954 38.9445C189.954 38.6289 190.048 38.5132 190.374 38.5027C191.532 38.4921 191.532 38.4816 191.826 39.6074C191.974 40.165 192.153 40.7226 192.426 41.2802C192.5 41.0172 192.563 40.7437 192.637 40.4806C192.794 39.9125 192.942 39.3443 193.099 38.7762C193.11 38.7552 193.099 38.7131 193.12 38.7026C193.552 38.3133 194.057 38.5658 194.53 38.5342C194.825 38.5132 194.741 38.8183 194.741 38.9972C194.751 40.3649 194.741 41.7326 194.751 43.1004C194.751 43.3739 194.678 43.4686 194.404 43.4686C193.71 43.4792 193.668 43.4371 193.689 42.7532C193.699 42.0483 193.689 41.3434 193.689 40.5332C193.384 41.175 193.373 41.7958 193.173 42.3639C193.099 42.5743 193.036 42.7953 193.015 43.0057C192.973 43.4055 192.721 43.4581 192.384 43.4581C192.037 43.4581 191.784 43.416 191.7 43.0057C191.532 42.2377 191.321 41.4591 191.121 40.67Z" fill="white"/>
<path d="M102.271 40.7648C102.207 41.354 102.228 41.9222 101.892 42.4272C101.702 42.7113 101.839 42.9006 102.123 43.0059C102.607 43.1952 102.281 43.4688 102.186 43.6897C102.071 43.9633 101.871 44.0159 101.618 43.8475C101.471 43.7529 101.324 43.6687 101.187 43.574C100.976 43.4162 100.777 43.4057 100.524 43.4688C99.5876 43.6792 98.6933 43.595 97.9674 42.8691C97.3887 42.2904 97.273 41.5119 97.3045 40.7228C97.3256 40.344 97.3677 39.9547 97.5255 39.597C97.8096 38.9237 98.4303 38.4712 99.1247 38.3134C99.7454 38.1661 100.429 38.2398 100.997 38.5238C101.355 38.7132 101.671 38.9868 101.892 39.334C102.134 39.7548 102.271 40.2704 102.271 40.7648ZM99.7034 42.5114C99.514 42.3325 99.4088 42.2062 99.5245 41.9958C99.7034 41.6697 99.8822 41.5645 100.24 41.7854C100.377 41.8696 100.64 42.059 100.798 41.9117C100.84 41.8696 100.871 41.8064 100.892 41.7538C101.061 41.2909 101.071 40.7964 100.976 40.323C100.934 40.1231 100.871 39.9337 100.755 39.7759C100.608 39.576 100.387 39.4287 100.156 39.355C99.8822 39.2708 99.5561 39.2603 99.293 39.355C98.9564 39.4813 98.7039 39.8285 98.5881 40.1546C98.4619 40.5123 98.4619 40.9016 98.504 41.2804C98.525 41.4803 98.5671 41.6697 98.6407 41.859C98.8196 42.3009 99.2404 42.5008 99.7034 42.5114Z" fill="white"/>
<path d="M130.678 40.6594C130.678 41.4906 130.667 42.2481 130.688 43.0056C130.699 43.3423 130.593 43.5001 130.246 43.4686C129.931 43.437 129.531 43.5948 129.531 43.0162C129.541 41.6274 129.531 40.228 129.552 38.8393C129.552 38.6709 129.478 38.3868 129.773 38.3763C130.141 38.3658 130.572 38.1659 130.846 38.6078C131.33 39.3969 131.814 40.1965 132.298 40.9856C132.34 41.0487 132.371 41.1223 132.487 41.1434C132.603 40.8698 132.54 40.5752 132.54 40.3017C132.55 39.8282 132.561 39.3548 132.54 38.8813C132.519 38.4921 132.666 38.3027 133.045 38.3237C133.666 38.3658 133.687 38.2185 133.687 38.9339C133.687 40.2386 133.697 41.5327 133.687 42.8373C133.687 43.0582 133.792 43.3949 133.466 43.4265C133.118 43.458 132.687 43.6474 132.424 43.2266C131.982 42.5427 131.561 41.8588 131.13 41.175C131.004 41.0171 130.93 40.8172 130.678 40.6594Z" fill="white"/>
<path d="M143.944 40.807C143.955 42.0801 143.576 42.9639 142.482 43.3742C140.851 43.9949 139.021 43.1427 138.979 41.1332C138.968 40.1758 139.126 39.292 139.978 38.7028C141.125 37.9032 142.777 38.1347 143.597 39.3446C143.913 39.797 144.008 40.3862 143.944 40.807ZM142.766 40.8176C142.829 40.4283 142.65 40.1021 142.482 39.7865C142.156 39.1763 140.988 39.1131 140.578 39.6708C140.157 40.2389 140.083 40.8702 140.294 41.5646C140.42 41.9959 140.746 42.4168 141.146 42.4694C141.861 42.5746 142.377 42.3747 142.566 41.8486C142.671 41.533 142.819 41.1963 142.766 40.8176Z" fill="white"/>
<path d="M183.083 40.7332C184.178 40.7332 184.178 40.7332 184.178 41.8063C184.178 42.8163 184.398 42.9216 183.125 43.3634C181.568 43.9 180.095 43.395 179.569 41.7011C179.285 40.7858 179.748 39.3864 180.453 38.8814C181.326 38.2502 182.62 38.2607 183.525 38.892C183.641 38.9656 183.704 39.0708 183.788 39.176C183.957 39.3864 184.167 39.66 184.03 39.8809C183.872 40.144 183.494 40.1019 183.21 40.144C183.094 40.165 183.02 40.0808 182.957 39.9862C182.536 39.418 182.252 39.3549 181.537 39.4917C181.074 39.5864 180.737 40.1545 180.706 40.5753C180.684 40.891 180.695 41.1961 180.748 41.5117C180.916 42.5428 182.084 42.7743 182.82 42.3008C182.968 42.2061 183.041 42.0799 182.999 41.901C182.957 41.7116 182.799 41.7221 182.652 41.7221C182.589 41.7221 182.526 41.7221 182.452 41.7221C181.968 41.7221 181.705 41.2803 181.937 40.8489C182.01 40.7226 182.126 40.7226 182.242 40.7226C182.536 40.7332 182.81 40.7332 183.083 40.7332Z" fill="white"/>
<path d="M165.545 40.7963C165.545 41.4907 165.545 42.1851 165.545 42.8795C165.545 43.4055 165.04 43.6896 164.587 43.4371C164.471 43.374 164.461 43.2582 164.461 43.132C164.471 41.7327 164.482 40.3228 164.482 38.9235C164.482 38.5974 164.577 38.5448 164.903 38.5027C165.576 38.4185 165.787 38.8814 166.05 39.3128C166.449 39.9651 166.849 40.6174 167.249 41.2803C167.47 41.1856 167.396 41.0172 167.396 40.891C167.407 40.2492 167.417 39.6074 167.396 38.9656C167.386 38.6079 167.533 38.5027 167.859 38.5342C168.133 38.5553 168.427 38.4501 168.417 38.934C168.385 40.3544 168.406 41.7747 168.417 43.1846C168.417 43.395 168.343 43.4581 168.143 43.4792C167.628 43.5423 167.239 43.4476 166.965 42.911C166.586 42.164 166.102 41.4802 165.671 40.7647C165.618 40.7752 165.576 40.7858 165.545 40.7963Z" fill="white"/>
<path d="M78.6502 41.1855C78.6502 40.3649 78.6502 39.5337 78.6502 38.7131C78.6502 38.5237 78.6923 38.3553 78.9554 38.3553C80.018 38.3659 81.0806 38.3659 82.1433 38.3659C82.3642 38.3659 82.5431 38.3869 82.522 38.6815C82.501 38.9761 82.5957 39.3338 82.1327 39.3443C81.5436 39.3654 80.9544 39.3864 80.3652 39.3549C79.9759 39.3338 79.8286 39.4495 79.8391 39.8599C79.8497 40.165 79.9338 40.2807 80.2495 40.2702C80.7966 40.2492 81.3542 40.2807 81.9013 40.2597C82.3221 40.2492 82.3116 40.5122 82.3221 40.8068C82.3326 41.1119 82.28 41.3013 81.9013 41.2697C81.3752 41.2381 80.8492 41.2697 80.3231 41.2592C79.997 41.2487 79.8286 41.3749 79.8497 41.7221C79.8602 41.8273 79.8602 41.9325 79.8497 42.0377C79.8076 42.3955 79.9864 42.4902 80.3126 42.4796C80.9333 42.4586 81.5436 42.4902 82.1643 42.4691C82.5957 42.4481 82.6062 42.7006 82.6167 43.0267C82.6272 43.3739 82.501 43.4897 82.1538 43.4897C81.1332 43.4791 80.1022 43.4791 79.0816 43.4897C78.766 43.4897 78.6292 43.3845 78.6397 43.0478C78.6608 42.427 78.6502 41.8063 78.6502 41.1855Z" fill="white"/>
<path d="M85.5942 43.5737C85.0261 43.5947 84.4159 43.5106 83.9845 43.1318C83.7004 42.8898 83.5111 42.5531 83.4058 42.1954C83.3006 41.8693 83.3217 41.7009 83.7425 41.6588C84.1423 41.6273 84.4054 41.5957 84.6053 42.0586C84.8367 42.5952 85.5311 42.6478 85.994 42.4269C86.1098 42.3637 86.215 42.2796 86.2886 42.1638C86.4675 41.8482 86.1939 41.5957 85.9099 41.501C85.4785 41.3537 85.0366 41.238 84.5947 41.1012C83.8793 40.8803 83.5005 40.3647 83.5216 39.6493C83.5321 39.3126 83.6373 38.9865 83.8793 38.7445C84.1423 38.492 84.5106 38.3552 84.8578 38.2921C85.5627 38.1553 86.4991 38.25 86.9936 38.8392C86.9936 38.8392 86.9936 38.8497 87.0041 38.8497C87.1303 38.997 87.2145 39.1864 87.2881 39.3652C87.3513 39.5125 87.4144 39.7124 87.2671 39.8282C87.1408 39.9334 86.9515 39.9439 86.7936 39.9544C86.5096 39.9754 86.2781 39.9334 86.1203 39.6809C86.0677 39.5862 86.0151 39.481 85.9309 39.4073C85.8467 39.3231 85.731 39.2811 85.6048 39.26C85.2996 39.2074 84.8788 39.2495 84.6789 39.523C84.5316 39.7124 84.6684 39.8176 84.7841 39.9123C85.0787 40.1543 85.468 40.1648 85.8152 40.2595C86.4675 40.4489 87.0988 40.6488 87.3934 41.3537C87.6564 42.0165 87.3934 42.7846 86.8463 43.216C86.6043 43.4053 86.2992 43.5 85.994 43.5421C85.8678 43.5526 85.731 43.5632 85.5942 43.5737Z" fill="white"/>
<path d="M161.136 43.5528C159.705 43.5528 158.769 42.5533 158.801 40.9856C158.832 39.4916 159.621 38.4395 161.126 38.4395C162.83 38.429 163.609 39.5022 163.619 40.9541C163.64 42.4376 162.904 43.6054 161.136 43.5528ZM160.021 40.9751C160.021 41.1224 160.021 41.2382 160.021 41.3644C160.042 42.0062 160.484 42.4902 161.094 42.5533C161.715 42.6269 162.23 42.2377 162.378 41.5959C162.472 41.2066 162.462 40.8068 162.399 40.428C162.262 39.5969 161.399 39.1971 160.652 39.5758C160.042 39.8704 159.968 40.407 160.021 40.9751Z" fill="white"/>
<path d="M169.469 41.0277C169.469 40.3543 169.469 39.6915 169.469 39.0182C169.469 38.671 169.584 38.4921 169.984 38.5131C170.542 38.5447 171.121 38.5657 171.678 38.5131C172.53 38.4395 173.362 39.1234 173.561 39.944C173.751 40.7436 173.782 41.5432 173.446 42.3323C173.183 42.9425 172.52 43.5212 171.731 43.4791C171.131 43.4476 170.521 43.4686 169.921 43.4791C169.606 43.4896 169.469 43.3634 169.479 43.0372C169.479 42.3639 169.469 41.6905 169.469 41.0277ZM170.605 40.9435C170.605 41.196 170.605 41.438 170.605 41.6905C170.605 42.5322 170.626 42.5427 171.468 42.5006C171.51 42.5006 171.541 42.4901 171.583 42.4901C172.162 42.4375 172.331 42.2797 172.467 41.7221C172.551 41.3854 172.52 41.0487 172.52 40.7015C172.509 39.8914 172.173 39.5547 171.384 39.5232C171.257 39.5126 171.121 39.5021 170.994 39.4706C170.71 39.4074 170.605 39.5337 170.605 39.8072C170.605 40.186 170.605 40.5648 170.605 40.9435Z" fill="white"/>
<path d="M206.545 40.9223C206.545 40.249 206.556 39.5861 206.545 38.9128C206.545 38.6287 206.661 38.513 206.945 38.5235C207.598 38.534 208.26 38.4919 208.913 38.534C209.576 38.5761 210.133 38.8812 210.428 39.502C210.88 40.4383 210.849 41.4063 210.48 42.3637C210.175 43.1318 209.544 43.4263 208.776 43.4684C208.187 43.5 207.598 43.4579 207.008 43.479C206.651 43.4895 206.545 43.3211 206.545 43.0055C206.535 42.3111 206.535 41.6167 206.545 40.9223ZM207.692 40.9539C207.692 41.1538 207.692 41.3432 207.692 41.5431C207.713 42.6267 207.492 42.49 208.702 42.4689C209.186 42.4584 209.502 42.1217 209.523 41.6378C209.544 41.2169 209.544 40.7961 209.523 40.3752C209.502 39.8702 209.176 39.5546 208.671 39.523C208.439 39.5125 208.197 39.5125 207.966 39.4914C207.755 39.4704 207.682 39.5756 207.692 39.765C207.692 40.1648 207.692 40.5541 207.692 40.9539Z" fill="white"/>
<path d="M124.628 40.9646C124.628 40.2386 124.638 39.5232 124.628 38.7972C124.628 38.5026 124.712 38.3659 125.028 38.3659C126.09 38.3764 127.153 38.3659 128.215 38.3553C128.3 38.3553 128.394 38.3553 128.415 38.4395C128.499 38.692 128.499 38.9656 128.426 39.2181C128.363 39.4601 128.121 39.3654 127.952 39.3759C127.353 39.3864 126.742 39.3969 126.143 39.3759C125.753 39.3654 125.785 39.6179 125.775 39.8809C125.764 40.1545 125.838 40.2912 126.143 40.2807C126.721 40.2597 127.3 40.2912 127.879 40.2702C128.289 40.2597 128.3 40.5017 128.31 40.8068C128.321 41.1224 128.258 41.3013 127.879 41.2802C127.3 41.2592 126.721 41.2802 126.143 41.2697C125.869 41.2697 125.775 41.3749 125.775 41.6485C125.753 42.4902 125.743 42.4902 126.585 42.4902C127.121 42.4902 127.658 42.5007 128.205 42.4902C128.521 42.4796 128.626 42.648 128.605 42.932C128.584 43.2056 128.626 43.5002 128.194 43.5002C127.121 43.4897 126.038 43.4897 124.964 43.5002C124.712 43.5002 124.617 43.416 124.617 43.153C124.638 42.406 124.628 41.68 124.628 40.9646Z" fill="white"/>
<path d="M108.372 40.9013C108.372 40.2174 108.393 39.5335 108.362 38.8497C108.341 38.4288 108.53 38.3026 108.888 38.3236C109.856 38.3973 110.834 38.3657 111.802 38.3447C112.097 38.3341 112.255 38.4078 112.213 38.7339C112.181 39.018 112.318 39.3757 111.813 39.3652C111.171 39.3547 110.529 39.3757 109.877 39.3547C109.477 39.3442 109.54 39.6072 109.519 39.8597C109.509 40.1333 109.572 40.2805 109.887 40.27C110.435 40.249 110.992 40.2805 111.539 40.2595C111.96 40.249 112.044 40.4699 112.044 40.8276C112.044 41.1854 111.876 41.2801 111.56 41.2695C111.024 41.259 110.487 41.2801 109.94 41.259C109.603 41.2485 109.509 41.3747 109.509 41.7009C109.53 42.6057 109.424 42.4584 110.287 42.4795C110.834 42.49 111.392 42.49 111.939 42.4795C112.497 42.4689 112.213 42.9108 112.286 43.1423C112.36 43.4053 112.192 43.479 111.95 43.479C110.876 43.479 109.793 43.4685 108.72 43.479C108.414 43.479 108.341 43.3422 108.341 43.0687C108.372 42.3427 108.372 41.6273 108.372 40.9013Z" fill="white"/>
<path d="M147.29 40.996C147.29 40.3226 147.301 39.6598 147.29 38.9865C147.28 38.6182 147.437 38.513 147.795 38.5235C148.731 38.5446 149.657 38.5341 150.594 38.5235C150.899 38.5235 151.057 38.5867 151.046 38.9339C151.046 39.2705 150.993 39.5125 150.594 39.5125C150.015 39.5125 149.436 39.5336 148.858 39.5125C148.51 39.502 148.426 39.6283 148.426 39.9439C148.426 40.2595 148.489 40.4384 148.858 40.4173C149.394 40.3963 149.931 40.4173 150.478 40.4068C150.72 40.4068 150.888 40.4489 150.878 40.7435C150.867 41.017 150.951 41.3327 150.52 41.3537C150.026 41.3642 149.531 41.3748 149.037 41.3642C148.816 41.3537 148.553 41.3011 148.479 41.5221C148.384 41.7851 148.384 42.1007 148.489 42.3743C148.542 42.511 148.721 42.469 148.847 42.469C149.447 42.469 150.057 42.49 150.657 42.469C151.099 42.4584 151.151 42.7004 151.162 43.0687C151.172 43.479 150.941 43.4685 150.657 43.4685C149.689 43.4685 148.71 43.4579 147.742 43.4685C147.416 43.4685 147.29 43.3527 147.301 43.0371C147.301 42.3637 147.29 41.6799 147.29 40.996Z" fill="white"/>
<path d="M185.145 40.9647C185.145 40.2808 185.156 39.5969 185.135 38.913C185.124 38.629 185.198 38.5132 185.503 38.5132C186.492 38.5238 187.47 38.5238 188.459 38.5132C188.807 38.5027 188.88 38.6921 188.901 38.9762C188.922 39.2708 188.817 39.4812 188.502 39.4917C187.933 39.5127 187.376 39.5127 186.808 39.5022C186.513 39.5022 186.261 39.5022 186.271 39.9231C186.271 40.3018 186.418 40.4281 186.787 40.4176C187.313 40.3965 187.839 40.4176 188.365 40.407C188.638 40.3965 188.754 40.5123 188.733 40.7753C188.712 41.0067 188.807 41.2803 188.417 41.3329C187.891 41.396 187.365 41.3539 186.85 41.3539C186.545 41.3539 186.271 41.3539 186.271 41.7853C186.271 42.4271 186.282 42.4481 186.787 42.4587C187.355 42.4587 187.912 42.4692 188.48 42.4587C188.943 42.4481 188.964 42.7427 188.975 43.0899C188.985 43.4687 188.744 43.4687 188.48 43.4687C187.491 43.4687 186.513 43.4582 185.524 43.4687C185.24 43.4687 185.135 43.3845 185.135 43.0899C185.166 42.385 185.145 41.6801 185.145 40.9647Z" fill="white"/>
<path d="M117.936 43.4161C117.589 43.5108 117.252 43.4792 116.926 43.4582C116.663 43.4476 116.611 43.1846 116.568 42.9952C116.516 42.7743 116.421 42.5428 116.211 42.4271C116.021 42.3219 115.779 42.3534 115.579 42.3534C115.243 42.3534 114.811 42.2693 114.517 42.4797C114.296 42.6375 114.201 42.9005 114.149 43.1531C114.064 43.6265 113.675 43.4687 113.391 43.4687C112.823 43.4897 112.791 43.4266 113.002 42.9005C113.559 41.4697 114.128 40.0493 114.685 38.6184C114.738 38.4817 114.801 38.3765 114.959 38.3765C115.232 38.3659 115.506 38.3554 115.779 38.3659C115.969 38.3659 116.042 38.5237 116.095 38.671C116.589 39.9125 117.084 41.154 117.578 42.3955C117.726 42.7112 117.936 43.0058 117.936 43.4161ZM115.38 39.9967C115.306 39.9862 115.243 40.1335 115.222 40.2071C115.19 40.3018 115.159 40.407 115.138 40.5122C115.117 40.6069 115.085 40.7121 115.053 40.8068C115.022 40.9015 114.98 40.9962 114.948 41.0909C114.917 41.2277 114.938 41.3329 115.074 41.3645C115.211 41.396 115.358 41.375 115.495 41.375C115.558 41.375 115.632 41.375 115.695 41.3645C115.779 41.3434 115.874 41.2908 115.874 41.1856C115.874 41.133 115.842 41.0699 115.821 41.0278C115.8 40.9647 115.769 40.9015 115.748 40.8489C115.706 40.7121 115.674 40.5649 115.622 40.4281C115.6 40.3439 115.569 40.2703 115.527 40.1966C115.495 40.123 115.453 40.0072 115.38 39.9967Z" fill="white"/>
<path d="M97.0204 43.4159C96.6522 43.5106 96.326 43.4896 95.9999 43.458C95.7158 43.4265 95.6527 43.1529 95.5895 42.932C95.5264 42.711 95.4212 42.469 95.1897 42.3744C95.0319 42.3112 94.8531 42.3533 94.6847 42.3638C94.3901 42.3744 94.0745 42.3323 93.7799 42.3954C93.58 42.448 93.4748 42.5953 93.3801 42.7742C93.317 42.9004 93.2644 43.0372 93.2118 43.1634C93.1381 43.3528 93.0224 43.4685 92.8014 43.458C92.6015 43.4475 92.4121 43.458 92.2122 43.458C91.9492 43.4685 91.8966 43.3423 91.9808 43.1108C92.5594 41.6274 93.1381 40.1333 93.7168 38.6499C93.7904 38.4605 93.9062 38.3658 94.1271 38.3448C94.9583 38.2606 95.0214 38.3027 95.3475 39.1233C95.8631 40.449 96.4102 41.7746 96.9362 43.1003C96.9783 43.195 96.9888 43.2897 97.0204 43.4159ZM94.4427 40.0071C94.2007 40.3648 94.1376 40.7225 94.0114 41.0487C93.9693 41.1644 93.9482 41.3328 94.1481 41.3433C94.3586 41.3643 94.569 41.3538 94.7794 41.3538C94.9057 41.3538 95.0003 41.2696 94.9477 41.1539C94.7794 40.7962 94.6847 40.3964 94.4427 40.0071Z" fill="white"/>
<path d="M107.163 40.27C107.163 40.7645 107.163 41.2695 107.163 41.764C107.152 42.9108 106.437 43.6158 105.29 43.5737C104.859 43.5631 104.417 43.5947 104.017 43.3738C103.438 43.0581 103.112 42.5426 103.101 41.9008C103.08 40.8803 102.965 39.8597 103.07 38.8286C103.123 38.3552 103.217 38.2815 103.848 38.3131C104.217 38.3236 104.248 38.5551 104.248 38.8497C104.238 39.7861 104.248 40.7119 104.248 41.6483C104.248 42.006 104.385 42.3322 104.722 42.4374C105.122 42.5636 105.553 42.6268 105.869 42.2059C105.995 42.0376 106.005 41.8692 106.005 41.6904C106.005 40.754 106.005 39.8281 106.005 38.8918C106.005 38.7129 105.942 38.4814 106.153 38.3973C106.426 38.2921 106.742 38.2921 107.026 38.3552C107.194 38.3973 107.152 38.5551 107.152 38.6919C107.163 39.2179 107.163 39.744 107.163 40.27Z" fill="white"/>
<path d="M156.076 43.5528C155.034 43.5633 154.298 43.1425 154.066 42.1535C154.013 41.901 154.066 41.7852 154.298 41.7221C154.782 41.5959 155.034 41.6905 155.255 42.1324C155.539 42.7006 156.254 42.6585 156.654 42.4376C156.833 42.3429 156.938 42.1535 156.896 41.9325C156.854 41.7116 156.686 41.6485 156.475 41.5748C155.949 41.396 155.381 41.3328 154.887 41.0382C154.413 40.7542 154.15 40.3544 154.182 39.8178C154.224 39.2076 154.571 38.7552 155.16 38.5658C155.76 38.3764 156.381 38.408 156.991 38.5658C157.37 38.6605 157.854 39.3023 157.896 39.681C157.917 39.902 157.833 40.0493 157.612 40.0598C157.243 40.0808 156.875 40.1965 156.665 39.6915C156.486 39.2707 155.697 39.2602 155.392 39.6179C155.213 39.8283 155.36 39.9546 155.518 40.0598C155.834 40.2702 156.202 40.3123 156.56 40.3964C156.802 40.4596 157.033 40.5437 157.264 40.649C157.854 40.9225 158.159 41.5538 158.054 42.2271C157.969 42.7742 157.485 43.4581 156.791 43.4897C156.528 43.5002 156.276 43.5528 156.076 43.5528Z" fill="white"/>
<path d="M179.053 43.4263C178.748 43.521 178.422 43.4894 178.096 43.4579C177.833 43.4368 177.801 43.1633 177.759 42.9739C177.644 42.4794 177.339 42.3111 176.865 42.3637C176.77 42.3742 176.676 42.3742 176.592 42.3637C175.992 42.2795 175.582 42.4268 175.445 43.1001C175.382 43.4263 174.571 43.6262 174.277 43.4368C174.151 43.3526 174.203 43.258 174.245 43.1633C174.813 41.7008 175.382 40.2384 175.95 38.7654C176.013 38.5971 176.118 38.534 176.307 38.5129C177.139 38.4498 177.149 38.4498 177.465 39.2284C177.991 40.5225 178.506 41.8271 179.032 43.1317C179.064 43.2264 179.117 43.3 179.053 43.4263ZM176.623 40.07C176.381 40.4593 176.286 40.8486 176.15 41.2274C176.097 41.3642 176.223 41.4378 176.36 41.4378C176.486 41.4378 176.623 41.4273 176.749 41.4273C177.002 41.4483 177.086 41.3431 177.023 41.0906C176.939 40.7539 176.802 40.4383 176.623 40.07Z" fill="white"/>
<path d="M215.394 43.4897C215.351 43.4897 215.32 43.4897 215.288 43.4897C214.941 43.5107 214.783 43.2371 214.71 42.932C214.668 42.7637 214.594 42.5743 214.468 42.4586C214.331 42.3428 214.11 42.3323 213.931 42.3428C213.605 42.3639 213.268 42.3323 212.932 42.3744C212.847 42.3849 212.774 42.406 212.711 42.4586C212.637 42.5217 212.605 42.6269 212.563 42.7216C212.5 42.8899 212.437 43.0688 212.374 43.2371C212.258 43.5528 212.027 43.4686 211.827 43.4686C211.059 43.4791 211.069 43.4791 211.353 42.7637C211.827 41.5748 212.29 40.3754 212.742 39.176C212.847 38.9024 213.047 38.671 213.31 38.5342C213.573 38.4079 213.963 38.3869 214.184 38.6078C214.352 38.7762 214.405 39.0708 214.499 39.2812C214.615 39.5758 214.741 39.8809 214.857 40.1755C215.088 40.7752 215.33 41.3749 215.562 41.9746C215.614 42.1114 215.667 42.2482 215.72 42.3849C215.772 42.5217 215.825 42.648 215.888 42.7847C215.941 42.911 216.13 43.1951 216.046 43.3424C215.962 43.5423 215.614 43.5002 215.394 43.4897ZM213.594 40.1334C213.468 40.2491 213.405 40.4701 213.352 40.6279C213.3 40.7647 213.258 40.9015 213.195 41.0277C213.153 41.1329 213.047 41.2697 213.184 41.3433C213.405 41.4801 213.668 41.4591 213.91 41.3854C214.047 41.3433 214.068 41.196 214.026 41.0803C213.973 40.9225 213.921 40.7542 213.857 40.6069C213.794 40.4701 213.721 40.2386 213.594 40.1334Z" fill="white"/>
<path d="M136.548 38.3446C137.127 38.3446 137.705 38.3551 138.274 38.3446C138.484 38.3446 138.547 38.4288 138.568 38.6182C138.642 39.302 138.579 39.3652 137.874 39.3757C137.074 39.3862 137.137 39.2705 137.137 40.1122C137.137 41.0591 137.137 42.006 137.137 42.9424C137.137 43.1317 137.179 43.3843 136.937 43.4369C136.643 43.5 136.338 43.5316 136.043 43.4158C135.917 43.3632 135.98 43.2054 135.98 43.0897C135.98 42.027 135.959 40.9644 135.99 39.9018C136.001 39.4493 135.833 39.3126 135.422 39.3652C135.328 39.3757 135.243 39.3652 135.149 39.3652C134.486 39.3652 134.37 39.2284 134.465 38.5656C134.496 38.3446 134.654 38.3341 134.812 38.3341C135.391 38.3341 135.969 38.3341 136.548 38.3446Z" fill="white"/>
<path d="M90.7495 41.3957C90.7495 41.9428 90.739 42.5004 90.7495 43.0475C90.7601 43.3421 90.6549 43.4999 90.3392 43.4684C90.2235 43.4579 90.0972 43.4579 89.9815 43.4684C89.6659 43.4999 89.5712 43.3526 89.5817 43.0581C89.5922 41.9639 89.5712 40.8802 89.5922 39.786C89.5922 39.4598 89.4975 39.323 89.1714 39.3546C89.0136 39.3651 88.8557 39.3546 88.6979 39.3546C88.1298 39.3441 88.0561 39.2599 88.0877 38.6707C88.0982 38.4603 88.1613 38.3551 88.3823 38.3551C89.5396 38.3656 90.6864 38.3656 91.8437 38.3551C92.212 38.3446 92.1804 38.5655 92.1594 38.7865C92.1383 39.0179 92.2751 39.3546 91.8332 39.3546C91.7911 39.3546 91.7596 39.3546 91.7175 39.3546C90.739 39.3756 90.739 39.3756 90.739 40.3646C90.7495 40.7224 90.7495 41.059 90.7495 41.3957Z" fill="white"/>
<path d="M203.294 41.5009C203.294 40.9749 203.284 40.4488 203.294 39.9228C203.305 39.6177 203.2 39.4809 202.884 39.5124C202.684 39.5335 202.484 39.523 202.295 39.5019C202.042 39.4809 201.864 39.3967 201.853 39.0706C201.843 38.5866 201.874 38.5235 202.358 38.5129C203.368 38.5129 204.378 38.5129 205.388 38.5129C205.641 38.5129 205.841 38.534 205.841 38.8601C205.841 39.1653 205.851 39.4598 205.441 39.5019C205.23 39.523 205.02 39.5335 204.81 39.5019C204.504 39.4598 204.42 39.5861 204.42 39.8702C204.431 40.9118 204.42 41.9428 204.41 42.9844C204.41 43.1633 204.462 43.3948 204.21 43.4368C203.915 43.4894 203.61 43.521 203.326 43.4053C203.221 43.3632 203.273 43.2159 203.273 43.1107C203.294 42.5846 203.294 42.0375 203.294 41.5009Z" fill="white"/>
<path d="M198.349 40.975C198.349 40.3332 198.339 39.6914 198.349 39.0391C198.349 38.5551 198.423 38.5341 199.002 38.5131C199.423 38.492 199.507 38.6814 199.496 39.0496C199.475 40.0071 199.517 40.9645 199.475 41.9219C199.465 42.3743 199.633 42.4901 200.043 42.469C200.517 42.4374 200.99 42.4795 201.464 42.469C201.874 42.4585 201.916 42.7005 201.927 43.0371C201.927 43.3738 201.79 43.4685 201.474 43.4685C200.59 43.458 199.717 43.4475 198.833 43.4685C198.455 43.479 198.349 43.3002 198.349 42.974C198.349 42.3217 198.349 41.6484 198.349 40.975Z" fill="white"/>
<path d="M217.645 42.848C217.603 43.5108 217.603 43.5108 216.94 43.4687C216.33 43.4266 216.635 42.9216 216.625 42.6796C216.614 42.1957 217.067 42.4271 217.319 42.4061C217.719 42.364 217.687 42.6376 217.645 42.848Z" fill="white"/>
</svg>
