<svg width="37" height="36" viewBox="0 0 37 36" fill="none" xmlns="http://www.w3.org/2000/svg">
  <g clip-path="url(#clip0_7534_12255)">
    <path
      d="M18.0076 26.1356H26.2952M31.4874 23.6552V18C31.4874 16.5023 30.2732 15.2881 28.7755 15.2881H20.6399L17.928 4.44067M23.3518 18V15.2881M20.6399 4.44067H4.91108M19.9619 15.2881H10.3348M10.3348 15.2881C5.84165 15.2881 2.19922 18.9306 2.19922 23.4237C2.19922 27.9169 5.84165 31.5593 10.3348 31.5593C14.828 31.5593 18.4704 27.9169 18.4704 23.4237C18.4704 18.9306 14.828 15.2881 10.3348 15.2881ZM7.62295 15.751V4.44067M28.7755 7.15254C27.2772 7.15254 26.0636 8.3665 26.0636 9.8644V15.2881M13.0467 15.2881V9.8644M34.1992 27.4915C34.1992 29.7381 32.378 31.5593 30.1314 31.5593C27.8848 31.5593 26.0636 29.7381 26.0636 27.4915C26.0636 25.2449 27.8848 23.4237 30.1314 23.4237C32.378 23.4237 34.1992 25.2449 34.1992 27.4915ZM13.0467 23.4237C13.0467 24.9214 11.8325 26.1356 10.3348 26.1356C8.83709 26.1356 7.62295 24.9214 7.62295 23.4237C7.62295 21.926 8.83709 20.7119 10.3348 20.7119C11.8325 20.7119 13.0467 21.926 13.0467 23.4237Z"
      stroke="#F2CC37" stroke-width="2.5" stroke-miterlimit="10" stroke-linecap="round"
      stroke-linejoin="round" />
  </g>
  <defs>
    <clipPath id="clip0_7534_12255">
      <rect width="36" height="36" fill="white" transform="translate(0.199219)" />
    </clipPath>
  </defs>
</svg>