<svg width="37" height="36" viewBox="0 0 37 36" fill="none" xmlns="http://www.w3.org/2000/svg">
  <path
    d="M10.5996 28.556L11.9274 17.9336M18.5996 28.556V17.9336M26.5996 28.556L25.2718 17.9336M25.2386 34H11.9606M24.5747 11.9585C24.5747 8.65852 21.8996 5.9834 18.5996 5.9834M24.5747 11.9585C24.5747 12.658 24.4483 13.3264 24.2275 13.9502H12.9717C12.7509 13.3264 12.6245 12.658 12.6245 11.9585M24.5747 11.9585H28.5581M18.5996 5.9834C15.2996 5.9834 12.6245 8.65852 12.6245 11.9585M18.5996 5.9834V2M12.6245 11.9585H8.6411M22.8246 7.73352L25.6413 4.91685M14.3744 7.73352L11.5577 4.91685M3.92741 23.2448H33.2718M5.25521 17.9336H31.944L34.5996 28.556H2.59961L5.25521 17.9336ZM15.944 28.556H21.2552L22.583 34H14.6162L15.944 28.556Z"
    stroke="#F2CC37" stroke-width="2.5" stroke-miterlimit="10" stroke-linecap="round"
    stroke-linejoin="round" />
</svg>